%TF.GenerationSoftware,KiCad,Pcbnew,(6.0.4-0)*%
%TF.CreationDate,2022-04-26T17:29:11+08:00*%
%TF.ProjectId,usb-ttl,7573622d-7474-46c2-9e6b-696361645f70,rev?*%
%TF.SameCoordinates,Original*%
%TF.FileFunction,Legend,Bot*%
%TF.FilePolarity,Positive*%
%FSLAX46Y46*%
G04 Gerber Fmt 4.6, Leading zero omitted, Abs format (unit mm)*
G04 Created by KiCad (PCBNEW (6.0.4-0)) date 2022-04-26 17:29:11*
%MOMM*%
%LPD*%
G01*
G04 APERTURE LIST*
%ADD10C,0.150000*%
%ADD11O,1.700000X1.700000*%
%ADD12R,1.700000X1.700000*%
%ADD13C,1.100000*%
%ADD14O,3.500000X1.900000*%
G04 APERTURE END LIST*
D10*
X182385714Y-97171428D02*
X181623809Y-97171428D01*
X182004761Y-97552380D02*
X182004761Y-96790476D01*
X180671428Y-96552380D02*
X181147619Y-96552380D01*
X181195238Y-97028571D01*
X181147619Y-96980952D01*
X181052380Y-96933333D01*
X180814285Y-96933333D01*
X180719047Y-96980952D01*
X180671428Y-97028571D01*
X180623809Y-97123809D01*
X180623809Y-97361904D01*
X180671428Y-97457142D01*
X180719047Y-97504761D01*
X180814285Y-97552380D01*
X181052380Y-97552380D01*
X181147619Y-97504761D01*
X181195238Y-97457142D01*
X180338095Y-96552380D02*
X180004761Y-97552380D01*
X179671428Y-96552380D01*
X182361904Y-94052380D02*
X181790476Y-94052380D01*
X182076190Y-95052380D02*
X182076190Y-94052380D01*
X181552380Y-94052380D02*
X180885714Y-95052380D01*
X180885714Y-94052380D02*
X181552380Y-95052380D01*
X180504761Y-95052380D02*
X180504761Y-94052380D01*
X180266666Y-94052380D01*
X180123809Y-94100000D01*
X180028571Y-94195238D01*
X179980952Y-94290476D01*
X179933333Y-94480952D01*
X179933333Y-94623809D01*
X179980952Y-94814285D01*
X180028571Y-94909523D01*
X180123809Y-95004761D01*
X180266666Y-95052380D01*
X180504761Y-95052380D01*
X181766666Y-92452380D02*
X182100000Y-91976190D01*
X182338095Y-92452380D02*
X182338095Y-91452380D01*
X181957142Y-91452380D01*
X181861904Y-91500000D01*
X181814285Y-91547619D01*
X181766666Y-91642857D01*
X181766666Y-91785714D01*
X181814285Y-91880952D01*
X181861904Y-91928571D01*
X181957142Y-91976190D01*
X182338095Y-91976190D01*
X181433333Y-91452380D02*
X180766666Y-92452380D01*
X180766666Y-91452380D02*
X181433333Y-92452380D01*
X180385714Y-92452380D02*
X180385714Y-91452380D01*
X180147619Y-91452380D01*
X180004761Y-91500000D01*
X179909523Y-91595238D01*
X179861904Y-91690476D01*
X179814285Y-91880952D01*
X179814285Y-92023809D01*
X179861904Y-92214285D01*
X179909523Y-92309523D01*
X180004761Y-92404761D01*
X180147619Y-92452380D01*
X180385714Y-92452380D01*
X181761904Y-89100000D02*
X181857142Y-89052380D01*
X182000000Y-89052380D01*
X182142857Y-89100000D01*
X182238095Y-89195238D01*
X182285714Y-89290476D01*
X182333333Y-89480952D01*
X182333333Y-89623809D01*
X182285714Y-89814285D01*
X182238095Y-89909523D01*
X182142857Y-90004761D01*
X182000000Y-90052380D01*
X181904761Y-90052380D01*
X181761904Y-90004761D01*
X181714285Y-89957142D01*
X181714285Y-89623809D01*
X181904761Y-89623809D01*
X181285714Y-90052380D02*
X181285714Y-89052380D01*
X180714285Y-90052380D01*
X180714285Y-89052380D01*
X180238095Y-90052380D02*
X180238095Y-89052380D01*
X180000000Y-89052380D01*
X179857142Y-89100000D01*
X179761904Y-89195238D01*
X179714285Y-89290476D01*
X179666666Y-89480952D01*
X179666666Y-89623809D01*
X179714285Y-89814285D01*
X179761904Y-89909523D01*
X179857142Y-90004761D01*
X180000000Y-90052380D01*
X180238095Y-90052380D01*
X181647619Y-87452380D02*
X181980952Y-86976190D01*
X182219047Y-87452380D02*
X182219047Y-86452380D01*
X181838095Y-86452380D01*
X181742857Y-86500000D01*
X181695238Y-86547619D01*
X181647619Y-86642857D01*
X181647619Y-86785714D01*
X181695238Y-86880952D01*
X181742857Y-86928571D01*
X181838095Y-86976190D01*
X182219047Y-86976190D01*
X181361904Y-86452380D02*
X180790476Y-86452380D01*
X181076190Y-87452380D02*
X181076190Y-86452380D01*
X180504761Y-87404761D02*
X180361904Y-87452380D01*
X180123809Y-87452380D01*
X180028571Y-87404761D01*
X179980952Y-87357142D01*
X179933333Y-87261904D01*
X179933333Y-87166666D01*
X179980952Y-87071428D01*
X180028571Y-87023809D01*
X180123809Y-86976190D01*
X180314285Y-86928571D01*
X180409523Y-86880952D01*
X180457142Y-86833333D01*
X180504761Y-86738095D01*
X180504761Y-86642857D01*
X180457142Y-86547619D01*
X180409523Y-86500000D01*
X180314285Y-86452380D01*
X180076190Y-86452380D01*
X179933333Y-86500000D01*
%LPC*%
D11*
%TO.C,J2*%
X183525000Y-97080000D03*
X183525000Y-94540000D03*
X183525000Y-92000000D03*
X183525000Y-89460000D03*
D12*
X183525000Y-86920000D03*
%TD*%
D13*
%TO.C,J1*%
X163100000Y-89700000D03*
X163100000Y-94300000D03*
D14*
X163100000Y-86300000D03*
X163100000Y-97700000D03*
%TD*%
M02*
