%TF.GenerationSoftware,KiCad,Pcbnew,(6.0.4-0)*%
%TF.CreationDate,2022-04-26T17:29:11+08:00*%
%TF.ProjectId,usb-ttl,7573622d-7474-46c2-9e6b-696361645f70,rev?*%
%TF.SameCoordinates,Original*%
%TF.FileFunction,Legend,Top*%
%TF.FilePolarity,Positive*%
%FSLAX46Y46*%
G04 Gerber Fmt 4.6, Leading zero omitted, Abs format (unit mm)*
G04 Created by KiCad (PCBNEW (6.0.4-0)) date 2022-04-26 17:29:11*
%MOMM*%
%LPD*%
G01*
G04 APERTURE LIST*
G04 Aperture macros list*
%AMRoundRect*
0 Rectangle with rounded corners*
0 $1 Rounding radius*
0 $2 $3 $4 $5 $6 $7 $8 $9 X,Y pos of 4 corners*
0 Add a 4 corners polygon primitive as box body*
4,1,4,$2,$3,$4,$5,$6,$7,$8,$9,$2,$3,0*
0 Add four circle primitives for the rounded corners*
1,1,$1+$1,$2,$3*
1,1,$1+$1,$4,$5*
1,1,$1+$1,$6,$7*
1,1,$1+$1,$8,$9*
0 Add four rect primitives between the rounded corners*
20,1,$1+$1,$2,$3,$4,$5,0*
20,1,$1+$1,$4,$5,$6,$7,0*
20,1,$1+$1,$6,$7,$8,$9,0*
20,1,$1+$1,$8,$9,$2,$3,0*%
G04 Aperture macros list end*
%ADD10C,0.150000*%
%ADD11C,0.120000*%
%ADD12RoundRect,0.225000X0.225000X0.250000X-0.225000X0.250000X-0.225000X-0.250000X0.225000X-0.250000X0*%
%ADD13RoundRect,0.218750X0.256250X-0.218750X0.256250X0.218750X-0.256250X0.218750X-0.256250X-0.218750X0*%
%ADD14RoundRect,0.200000X-0.275000X0.200000X-0.275000X-0.200000X0.275000X-0.200000X0.275000X0.200000X0*%
%ADD15RoundRect,0.218750X-0.256250X0.218750X-0.256250X-0.218750X0.256250X-0.218750X0.256250X0.218750X0*%
%ADD16RoundRect,0.150000X-0.825000X-0.150000X0.825000X-0.150000X0.825000X0.150000X-0.825000X0.150000X0*%
%ADD17RoundRect,0.200000X0.275000X-0.200000X0.275000X0.200000X-0.275000X0.200000X-0.275000X-0.200000X0*%
%ADD18O,1.700000X1.700000*%
%ADD19R,1.700000X1.700000*%
%ADD20C,1.100000*%
%ADD21R,2.500000X1.100000*%
%ADD22O,3.500000X1.900000*%
G04 APERTURE END LIST*
D10*
X197202380Y-96047619D02*
X197202380Y-96619047D01*
X197202380Y-96333333D02*
X196202380Y-96333333D01*
X196345238Y-96428571D01*
X196440476Y-96523809D01*
X196488095Y-96619047D01*
X196202380Y-95190476D02*
X196202380Y-95380952D01*
X196250000Y-95476190D01*
X196297619Y-95523809D01*
X196440476Y-95619047D01*
X196630952Y-95666666D01*
X197011904Y-95666666D01*
X197107142Y-95619047D01*
X197154761Y-95571428D01*
X197202380Y-95476190D01*
X197202380Y-95285714D01*
X197154761Y-95190476D01*
X197107142Y-95142857D01*
X197011904Y-95095238D01*
X196773809Y-95095238D01*
X196678571Y-95142857D01*
X196630952Y-95190476D01*
X196583333Y-95285714D01*
X196583333Y-95476190D01*
X196630952Y-95571428D01*
X196678571Y-95619047D01*
X196773809Y-95666666D01*
X197107142Y-94666666D02*
X197154761Y-94619047D01*
X197202380Y-94666666D01*
X197154761Y-94714285D01*
X197107142Y-94666666D01*
X197202380Y-94666666D01*
X196202380Y-94000000D02*
X196202380Y-93904761D01*
X196250000Y-93809523D01*
X196297619Y-93761904D01*
X196392857Y-93714285D01*
X196583333Y-93666666D01*
X196821428Y-93666666D01*
X197011904Y-93714285D01*
X197107142Y-93761904D01*
X197154761Y-93809523D01*
X197202380Y-93904761D01*
X197202380Y-94000000D01*
X197154761Y-94095238D01*
X197107142Y-94142857D01*
X197011904Y-94190476D01*
X196821428Y-94238095D01*
X196583333Y-94238095D01*
X196392857Y-94190476D01*
X196297619Y-94142857D01*
X196250000Y-94095238D01*
X196202380Y-94000000D01*
X196202380Y-93047619D02*
X196202380Y-92952380D01*
X196250000Y-92857142D01*
X196297619Y-92809523D01*
X196392857Y-92761904D01*
X196583333Y-92714285D01*
X196821428Y-92714285D01*
X197011904Y-92761904D01*
X197107142Y-92809523D01*
X197154761Y-92857142D01*
X197202380Y-92952380D01*
X197202380Y-93047619D01*
X197154761Y-93142857D01*
X197107142Y-93190476D01*
X197011904Y-93238095D01*
X196821428Y-93285714D01*
X196583333Y-93285714D01*
X196392857Y-93238095D01*
X196297619Y-93190476D01*
X196250000Y-93142857D01*
X196202380Y-93047619D01*
X196202380Y-92095238D02*
X196202380Y-92000000D01*
X196250000Y-91904761D01*
X196297619Y-91857142D01*
X196392857Y-91809523D01*
X196583333Y-91761904D01*
X196821428Y-91761904D01*
X197011904Y-91809523D01*
X197107142Y-91857142D01*
X197154761Y-91904761D01*
X197202380Y-92000000D01*
X197202380Y-92095238D01*
X197154761Y-92190476D01*
X197107142Y-92238095D01*
X197011904Y-92285714D01*
X196821428Y-92333333D01*
X196583333Y-92333333D01*
X196392857Y-92285714D01*
X196297619Y-92238095D01*
X196250000Y-92190476D01*
X196202380Y-92095238D01*
X196202380Y-91142857D02*
X196202380Y-91047619D01*
X196250000Y-90952380D01*
X196297619Y-90904761D01*
X196392857Y-90857142D01*
X196583333Y-90809523D01*
X196821428Y-90809523D01*
X197011904Y-90857142D01*
X197107142Y-90904761D01*
X197154761Y-90952380D01*
X197202380Y-91047619D01*
X197202380Y-91142857D01*
X197154761Y-91238095D01*
X197107142Y-91285714D01*
X197011904Y-91333333D01*
X196821428Y-91380952D01*
X196583333Y-91380952D01*
X196392857Y-91333333D01*
X196297619Y-91285714D01*
X196250000Y-91238095D01*
X196202380Y-91142857D01*
X197202380Y-89619047D02*
X196535714Y-89619047D01*
X196630952Y-89619047D02*
X196583333Y-89571428D01*
X196535714Y-89476190D01*
X196535714Y-89333333D01*
X196583333Y-89238095D01*
X196678571Y-89190476D01*
X197202380Y-89190476D01*
X196678571Y-89190476D02*
X196583333Y-89142857D01*
X196535714Y-89047619D01*
X196535714Y-88904761D01*
X196583333Y-88809523D01*
X196678571Y-88761904D01*
X197202380Y-88761904D01*
X197202380Y-88285714D02*
X196535714Y-88285714D01*
X196630952Y-88285714D02*
X196583333Y-88238095D01*
X196535714Y-88142857D01*
X196535714Y-88000000D01*
X196583333Y-87904761D01*
X196678571Y-87857142D01*
X197202380Y-87857142D01*
X196678571Y-87857142D02*
X196583333Y-87809523D01*
X196535714Y-87714285D01*
X196535714Y-87571428D01*
X196583333Y-87476190D01*
X196678571Y-87428571D01*
X197202380Y-87428571D01*
X185500000Y-84000000D02*
X198486420Y-84000000D01*
X185500000Y-100000000D02*
X198486420Y-100000000D01*
X197900000Y-84000000D02*
X197900000Y-100000000D01*
X197900000Y-84000000D02*
X197900000Y-100000000D01*
X197900000Y-84000000D02*
X197313579Y-85126504D01*
X197900000Y-84000000D02*
X198486421Y-85126504D01*
X197900000Y-100000000D02*
X198486421Y-98873496D01*
X197900000Y-100000000D02*
X197313579Y-98873496D01*
X167880952Y-100897619D02*
X167928571Y-100850000D01*
X168023809Y-100802380D01*
X168261904Y-100802380D01*
X168357142Y-100850000D01*
X168404761Y-100897619D01*
X168452380Y-100992857D01*
X168452380Y-101088095D01*
X168404761Y-101230952D01*
X167833333Y-101802380D01*
X168452380Y-101802380D01*
X169357142Y-100802380D02*
X168880952Y-100802380D01*
X168833333Y-101278571D01*
X168880952Y-101230952D01*
X168976190Y-101183333D01*
X169214285Y-101183333D01*
X169309523Y-101230952D01*
X169357142Y-101278571D01*
X169404761Y-101373809D01*
X169404761Y-101611904D01*
X169357142Y-101707142D01*
X169309523Y-101754761D01*
X169214285Y-101802380D01*
X168976190Y-101802380D01*
X168880952Y-101754761D01*
X168833333Y-101707142D01*
X169833333Y-101707142D02*
X169880952Y-101754761D01*
X169833333Y-101802380D01*
X169785714Y-101754761D01*
X169833333Y-101707142D01*
X169833333Y-101802380D01*
X170500000Y-100802380D02*
X170595238Y-100802380D01*
X170690476Y-100850000D01*
X170738095Y-100897619D01*
X170785714Y-100992857D01*
X170833333Y-101183333D01*
X170833333Y-101421428D01*
X170785714Y-101611904D01*
X170738095Y-101707142D01*
X170690476Y-101754761D01*
X170595238Y-101802380D01*
X170500000Y-101802380D01*
X170404761Y-101754761D01*
X170357142Y-101707142D01*
X170309523Y-101611904D01*
X170261904Y-101421428D01*
X170261904Y-101183333D01*
X170309523Y-100992857D01*
X170357142Y-100897619D01*
X170404761Y-100850000D01*
X170500000Y-100802380D01*
X171452380Y-100802380D02*
X171547619Y-100802380D01*
X171642857Y-100850000D01*
X171690476Y-100897619D01*
X171738095Y-100992857D01*
X171785714Y-101183333D01*
X171785714Y-101421428D01*
X171738095Y-101611904D01*
X171690476Y-101707142D01*
X171642857Y-101754761D01*
X171547619Y-101802380D01*
X171452380Y-101802380D01*
X171357142Y-101754761D01*
X171309523Y-101707142D01*
X171261904Y-101611904D01*
X171214285Y-101421428D01*
X171214285Y-101183333D01*
X171261904Y-100992857D01*
X171309523Y-100897619D01*
X171357142Y-100850000D01*
X171452380Y-100802380D01*
X172404761Y-100802380D02*
X172500000Y-100802380D01*
X172595238Y-100850000D01*
X172642857Y-100897619D01*
X172690476Y-100992857D01*
X172738095Y-101183333D01*
X172738095Y-101421428D01*
X172690476Y-101611904D01*
X172642857Y-101707142D01*
X172595238Y-101754761D01*
X172500000Y-101802380D01*
X172404761Y-101802380D01*
X172309523Y-101754761D01*
X172261904Y-101707142D01*
X172214285Y-101611904D01*
X172166666Y-101421428D01*
X172166666Y-101183333D01*
X172214285Y-100992857D01*
X172261904Y-100897619D01*
X172309523Y-100850000D01*
X172404761Y-100802380D01*
X173357142Y-100802380D02*
X173452380Y-100802380D01*
X173547619Y-100850000D01*
X173595238Y-100897619D01*
X173642857Y-100992857D01*
X173690476Y-101183333D01*
X173690476Y-101421428D01*
X173642857Y-101611904D01*
X173595238Y-101707142D01*
X173547619Y-101754761D01*
X173452380Y-101802380D01*
X173357142Y-101802380D01*
X173261904Y-101754761D01*
X173214285Y-101707142D01*
X173166666Y-101611904D01*
X173119047Y-101421428D01*
X173119047Y-101183333D01*
X173166666Y-100992857D01*
X173214285Y-100897619D01*
X173261904Y-100850000D01*
X173357142Y-100802380D01*
X174880952Y-101802380D02*
X174880952Y-101135714D01*
X174880952Y-101230952D02*
X174928571Y-101183333D01*
X175023809Y-101135714D01*
X175166666Y-101135714D01*
X175261904Y-101183333D01*
X175309523Y-101278571D01*
X175309523Y-101802380D01*
X175309523Y-101278571D02*
X175357142Y-101183333D01*
X175452380Y-101135714D01*
X175595238Y-101135714D01*
X175690476Y-101183333D01*
X175738095Y-101278571D01*
X175738095Y-101802380D01*
X176214285Y-101802380D02*
X176214285Y-101135714D01*
X176214285Y-101230952D02*
X176261904Y-101183333D01*
X176357142Y-101135714D01*
X176500000Y-101135714D01*
X176595238Y-101183333D01*
X176642857Y-101278571D01*
X176642857Y-101802380D01*
X176642857Y-101278571D02*
X176690476Y-101183333D01*
X176785714Y-101135714D01*
X176928571Y-101135714D01*
X177023809Y-101183333D01*
X177071428Y-101278571D01*
X177071428Y-101802380D01*
X160000000Y-100500000D02*
X160000000Y-103086420D01*
X185000000Y-100500000D02*
X185000000Y-103086420D01*
X160000000Y-102500000D02*
X185000000Y-102500000D01*
X160000000Y-102500000D02*
X185000000Y-102500000D01*
X160000000Y-102500000D02*
X161126504Y-103086421D01*
X160000000Y-102500000D02*
X161126504Y-101913579D01*
X185000000Y-102500000D02*
X183873496Y-101913579D01*
X185000000Y-102500000D02*
X183873496Y-103086421D01*
%TO.C,C1*%
X174933333Y-97257142D02*
X174885714Y-97304761D01*
X174742857Y-97352380D01*
X174647619Y-97352380D01*
X174504761Y-97304761D01*
X174409523Y-97209523D01*
X174361904Y-97114285D01*
X174314285Y-96923809D01*
X174314285Y-96780952D01*
X174361904Y-96590476D01*
X174409523Y-96495238D01*
X174504761Y-96400000D01*
X174647619Y-96352380D01*
X174742857Y-96352380D01*
X174885714Y-96400000D01*
X174933333Y-96447619D01*
X175885714Y-97352380D02*
X175314285Y-97352380D01*
X175600000Y-97352380D02*
X175600000Y-96352380D01*
X175504761Y-96495238D01*
X175409523Y-96590476D01*
X175314285Y-96638095D01*
%TO.C,D2*%
X181552380Y-91038095D02*
X180552380Y-91038095D01*
X180552380Y-90800000D01*
X180600000Y-90657142D01*
X180695238Y-90561904D01*
X180790476Y-90514285D01*
X180980952Y-90466666D01*
X181123809Y-90466666D01*
X181314285Y-90514285D01*
X181409523Y-90561904D01*
X181504761Y-90657142D01*
X181552380Y-90800000D01*
X181552380Y-91038095D01*
X180647619Y-90085714D02*
X180600000Y-90038095D01*
X180552380Y-89942857D01*
X180552380Y-89704761D01*
X180600000Y-89609523D01*
X180647619Y-89561904D01*
X180742857Y-89514285D01*
X180838095Y-89514285D01*
X180980952Y-89561904D01*
X181552380Y-90133333D01*
X181552380Y-89514285D01*
%TO.C,R2*%
X181482380Y-87366666D02*
X181006190Y-87700000D01*
X181482380Y-87938095D02*
X180482380Y-87938095D01*
X180482380Y-87557142D01*
X180530000Y-87461904D01*
X180577619Y-87414285D01*
X180672857Y-87366666D01*
X180815714Y-87366666D01*
X180910952Y-87414285D01*
X180958571Y-87461904D01*
X181006190Y-87557142D01*
X181006190Y-87938095D01*
X180577619Y-86985714D02*
X180530000Y-86938095D01*
X180482380Y-86842857D01*
X180482380Y-86604761D01*
X180530000Y-86509523D01*
X180577619Y-86461904D01*
X180672857Y-86414285D01*
X180768095Y-86414285D01*
X180910952Y-86461904D01*
X181482380Y-87033333D01*
X181482380Y-86414285D01*
%TO.C,D1*%
X181552380Y-94138095D02*
X180552380Y-94138095D01*
X180552380Y-93900000D01*
X180600000Y-93757142D01*
X180695238Y-93661904D01*
X180790476Y-93614285D01*
X180980952Y-93566666D01*
X181123809Y-93566666D01*
X181314285Y-93614285D01*
X181409523Y-93661904D01*
X181504761Y-93757142D01*
X181552380Y-93900000D01*
X181552380Y-94138095D01*
X181552380Y-92614285D02*
X181552380Y-93185714D01*
X181552380Y-92900000D02*
X180552380Y-92900000D01*
X180695238Y-92995238D01*
X180790476Y-93090476D01*
X180838095Y-93185714D01*
%TO.C,U1*%
X172838095Y-90952380D02*
X172838095Y-91761904D01*
X172885714Y-91857142D01*
X172933333Y-91904761D01*
X173028571Y-91952380D01*
X173219047Y-91952380D01*
X173314285Y-91904761D01*
X173361904Y-91857142D01*
X173409523Y-91761904D01*
X173409523Y-90952380D01*
X174409523Y-91952380D02*
X173838095Y-91952380D01*
X174123809Y-91952380D02*
X174123809Y-90952380D01*
X174028571Y-91095238D01*
X173933333Y-91190476D01*
X173838095Y-91238095D01*
%TO.C,R1*%
X181552380Y-96641666D02*
X181076190Y-96975000D01*
X181552380Y-97213095D02*
X180552380Y-97213095D01*
X180552380Y-96832142D01*
X180600000Y-96736904D01*
X180647619Y-96689285D01*
X180742857Y-96641666D01*
X180885714Y-96641666D01*
X180980952Y-96689285D01*
X181028571Y-96736904D01*
X181076190Y-96832142D01*
X181076190Y-97213095D01*
X181552380Y-95689285D02*
X181552380Y-96260714D01*
X181552380Y-95975000D02*
X180552380Y-95975000D01*
X180695238Y-96070238D01*
X180790476Y-96165476D01*
X180838095Y-96260714D01*
%TO.C,J2*%
X187576666Y-84102380D02*
X187576666Y-84816666D01*
X187529047Y-84959523D01*
X187433809Y-85054761D01*
X187290952Y-85102380D01*
X187195714Y-85102380D01*
X188005238Y-84197619D02*
X188052857Y-84150000D01*
X188148095Y-84102380D01*
X188386190Y-84102380D01*
X188481428Y-84150000D01*
X188529047Y-84197619D01*
X188576666Y-84292857D01*
X188576666Y-84388095D01*
X188529047Y-84530952D01*
X187957619Y-85102380D01*
X188576666Y-85102380D01*
%TO.C,J1*%
X161966666Y-91352380D02*
X161966666Y-92066666D01*
X161919047Y-92209523D01*
X161823809Y-92304761D01*
X161680952Y-92352380D01*
X161585714Y-92352380D01*
X162966666Y-92352380D02*
X162395238Y-92352380D01*
X162680952Y-92352380D02*
X162680952Y-91352380D01*
X162585714Y-91495238D01*
X162490476Y-91590476D01*
X162395238Y-91638095D01*
%TO.C,C2*%
X175033333Y-87057142D02*
X174985714Y-87104761D01*
X174842857Y-87152380D01*
X174747619Y-87152380D01*
X174604761Y-87104761D01*
X174509523Y-87009523D01*
X174461904Y-86914285D01*
X174414285Y-86723809D01*
X174414285Y-86580952D01*
X174461904Y-86390476D01*
X174509523Y-86295238D01*
X174604761Y-86200000D01*
X174747619Y-86152380D01*
X174842857Y-86152380D01*
X174985714Y-86200000D01*
X175033333Y-86247619D01*
X175414285Y-86247619D02*
X175461904Y-86200000D01*
X175557142Y-86152380D01*
X175795238Y-86152380D01*
X175890476Y-86200000D01*
X175938095Y-86247619D01*
X175985714Y-86342857D01*
X175985714Y-86438095D01*
X175938095Y-86580952D01*
X175366666Y-87152380D01*
X175985714Y-87152380D01*
D11*
%TO.C,C1*%
X175340580Y-94890000D02*
X175059420Y-94890000D01*
X175340580Y-95910000D02*
X175059420Y-95910000D01*
%TO.C,D2*%
X180335000Y-91785000D02*
X180335000Y-89500000D01*
X178865000Y-91785000D02*
X180335000Y-91785000D01*
X178865000Y-89500000D02*
X178865000Y-91785000D01*
%TO.C,R2*%
X179077500Y-86962742D02*
X179077500Y-87437258D01*
X180122500Y-86962742D02*
X180122500Y-87437258D01*
%TO.C,D1*%
X178865000Y-91915000D02*
X178865000Y-94200000D01*
X180335000Y-91915000D02*
X178865000Y-91915000D01*
X180335000Y-94200000D02*
X180335000Y-91915000D01*
%TO.C,U1*%
X173500000Y-89240000D02*
X175450000Y-89240000D01*
X173500000Y-94360000D02*
X175450000Y-94360000D01*
X173500000Y-89240000D02*
X170050000Y-89240000D01*
X173500000Y-94360000D02*
X171550000Y-94360000D01*
%TO.C,R1*%
X180122500Y-96712258D02*
X180122500Y-96237742D01*
X179077500Y-96712258D02*
X179077500Y-96237742D01*
%TO.C,J2*%
X193625000Y-96700000D02*
X193625000Y-97460000D01*
X184567929Y-94160000D02*
X184965000Y-94160000D01*
X193625000Y-97460000D02*
X187625000Y-97460000D01*
X182255000Y-86920000D02*
X182255000Y-85650000D01*
X187625000Y-96700000D02*
X193625000Y-96700000D01*
X187625000Y-86540000D02*
X193625000Y-86540000D01*
X193625000Y-86540000D02*
X193625000Y-87300000D01*
X193625000Y-94160000D02*
X193625000Y-94920000D01*
X187625000Y-94160000D02*
X193625000Y-94160000D01*
X187625000Y-87080000D02*
X193625000Y-87080000D01*
X184567929Y-89840000D02*
X184965000Y-89840000D01*
X187625000Y-87200000D02*
X193625000Y-87200000D01*
X184635000Y-86540000D02*
X184965000Y-86540000D01*
X187625000Y-86840000D02*
X193625000Y-86840000D01*
X193625000Y-89080000D02*
X193625000Y-89840000D01*
X187625000Y-86720000D02*
X193625000Y-86720000D01*
X184567929Y-89080000D02*
X184965000Y-89080000D01*
X187625000Y-86600000D02*
X193625000Y-86600000D01*
X193625000Y-87300000D02*
X187625000Y-87300000D01*
X187625000Y-86960000D02*
X193625000Y-86960000D01*
X184965000Y-98410000D02*
X187625000Y-98410000D01*
X193625000Y-92380000D02*
X187625000Y-92380000D01*
X187625000Y-91620000D02*
X193625000Y-91620000D01*
X184567929Y-96700000D02*
X184965000Y-96700000D01*
X187625000Y-89080000D02*
X193625000Y-89080000D01*
X193625000Y-91620000D02*
X193625000Y-92380000D01*
X184567929Y-97460000D02*
X184965000Y-97460000D01*
X184965000Y-85590000D02*
X184965000Y-98410000D01*
X184635000Y-87300000D02*
X184965000Y-87300000D01*
X184965000Y-93270000D02*
X187625000Y-93270000D01*
X184965000Y-88190000D02*
X187625000Y-88190000D01*
X193625000Y-89840000D02*
X187625000Y-89840000D01*
X182255000Y-85650000D02*
X183525000Y-85650000D01*
X184567929Y-91620000D02*
X184965000Y-91620000D01*
X184965000Y-95810000D02*
X187625000Y-95810000D01*
X184567929Y-92380000D02*
X184965000Y-92380000D01*
X184965000Y-90730000D02*
X187625000Y-90730000D01*
X187625000Y-85590000D02*
X184965000Y-85590000D01*
X187625000Y-98410000D02*
X187625000Y-85590000D01*
X193625000Y-94920000D02*
X187625000Y-94920000D01*
X184567929Y-94920000D02*
X184965000Y-94920000D01*
%TO.C,J1*%
X161050000Y-98145000D02*
X160000000Y-98145000D01*
X164220000Y-96400000D02*
X164220000Y-87600000D01*
X164220000Y-96400000D02*
X164975000Y-96400000D01*
X161050000Y-85855000D02*
X160000000Y-85855000D01*
%TO.C,C2*%
X175340580Y-88710000D02*
X175059420Y-88710000D01*
X175340580Y-87690000D02*
X175059420Y-87690000D01*
%TD*%
%LPC*%
D12*
%TO.C,C1*%
X175975000Y-95400000D03*
X174425000Y-95400000D03*
%TD*%
D13*
%TO.C,D2*%
X179600000Y-91087500D03*
X179600000Y-89512500D03*
%TD*%
D14*
%TO.C,R2*%
X179600000Y-86375000D03*
X179600000Y-88025000D03*
%TD*%
D15*
%TO.C,D1*%
X179600000Y-92612500D03*
X179600000Y-94187500D03*
%TD*%
D16*
%TO.C,U1*%
X171025000Y-89895000D03*
X171025000Y-91165000D03*
X171025000Y-92435000D03*
X171025000Y-93705000D03*
X175975000Y-93705000D03*
X175975000Y-92435000D03*
X175975000Y-91165000D03*
X175975000Y-89895000D03*
%TD*%
D17*
%TO.C,R1*%
X179600000Y-97300000D03*
X179600000Y-95650000D03*
%TD*%
D18*
%TO.C,J2*%
X183525000Y-97080000D03*
X183525000Y-94540000D03*
X183525000Y-92000000D03*
X183525000Y-89460000D03*
D19*
X183525000Y-86920000D03*
%TD*%
D20*
%TO.C,J1*%
X163100000Y-89700000D03*
X163100000Y-94300000D03*
D21*
X165850000Y-95500000D03*
X165850000Y-93000000D03*
X165850000Y-91000000D03*
X165850000Y-88500000D03*
D22*
X163100000Y-86300000D03*
X163100000Y-97700000D03*
%TD*%
D12*
%TO.C,C2*%
X174425000Y-88200000D03*
X175975000Y-88200000D03*
%TD*%
M02*
