%TF.GenerationSoftware,KiCad,Pcbnew,(6.0.4-0)*%
%TF.CreationDate,2022-04-26T17:29:11+08:00*%
%TF.ProjectId,usb-ttl,7573622d-7474-46c2-9e6b-696361645f70,rev?*%
%TF.SameCoordinates,Original*%
%TF.FileFunction,Copper,L1,Top*%
%TF.FilePolarity,Positive*%
%FSLAX46Y46*%
G04 Gerber Fmt 4.6, Leading zero omitted, Abs format (unit mm)*
G04 Created by KiCad (PCBNEW (6.0.4-0)) date 2022-04-26 17:29:11*
%MOMM*%
%LPD*%
G01*
G04 APERTURE LIST*
G04 Aperture macros list*
%AMRoundRect*
0 Rectangle with rounded corners*
0 $1 Rounding radius*
0 $2 $3 $4 $5 $6 $7 $8 $9 X,Y pos of 4 corners*
0 Add a 4 corners polygon primitive as box body*
4,1,4,$2,$3,$4,$5,$6,$7,$8,$9,$2,$3,0*
0 Add four circle primitives for the rounded corners*
1,1,$1+$1,$2,$3*
1,1,$1+$1,$4,$5*
1,1,$1+$1,$6,$7*
1,1,$1+$1,$8,$9*
0 Add four rect primitives between the rounded corners*
20,1,$1+$1,$2,$3,$4,$5,0*
20,1,$1+$1,$4,$5,$6,$7,0*
20,1,$1+$1,$6,$7,$8,$9,0*
20,1,$1+$1,$8,$9,$2,$3,0*%
G04 Aperture macros list end*
%TA.AperFunction,SMDPad,CuDef*%
%ADD10RoundRect,0.225000X0.225000X0.250000X-0.225000X0.250000X-0.225000X-0.250000X0.225000X-0.250000X0*%
%TD*%
%TA.AperFunction,SMDPad,CuDef*%
%ADD11RoundRect,0.218750X0.256250X-0.218750X0.256250X0.218750X-0.256250X0.218750X-0.256250X-0.218750X0*%
%TD*%
%TA.AperFunction,SMDPad,CuDef*%
%ADD12RoundRect,0.200000X-0.275000X0.200000X-0.275000X-0.200000X0.275000X-0.200000X0.275000X0.200000X0*%
%TD*%
%TA.AperFunction,SMDPad,CuDef*%
%ADD13RoundRect,0.218750X-0.256250X0.218750X-0.256250X-0.218750X0.256250X-0.218750X0.256250X0.218750X0*%
%TD*%
%TA.AperFunction,SMDPad,CuDef*%
%ADD14RoundRect,0.150000X-0.825000X-0.150000X0.825000X-0.150000X0.825000X0.150000X-0.825000X0.150000X0*%
%TD*%
%TA.AperFunction,SMDPad,CuDef*%
%ADD15RoundRect,0.200000X0.275000X-0.200000X0.275000X0.200000X-0.275000X0.200000X-0.275000X-0.200000X0*%
%TD*%
%TA.AperFunction,ComponentPad*%
%ADD16O,1.700000X1.700000*%
%TD*%
%TA.AperFunction,ComponentPad*%
%ADD17R,1.700000X1.700000*%
%TD*%
%TA.AperFunction,SMDPad,CuDef*%
%ADD18R,2.500000X1.100000*%
%TD*%
%TA.AperFunction,ComponentPad*%
%ADD19O,3.500000X1.900000*%
%TD*%
%TA.AperFunction,ViaPad*%
%ADD20C,0.700000*%
%TD*%
%TA.AperFunction,Conductor*%
%ADD21C,0.500000*%
%TD*%
%TA.AperFunction,Conductor*%
%ADD22C,1.000000*%
%TD*%
%TA.AperFunction,Conductor*%
%ADD23C,0.280000*%
%TD*%
G04 APERTURE END LIST*
D10*
%TO.P,C1,1*%
%TO.N,+5V*%
X175975000Y-95400000D03*
%TO.P,C1,2*%
%TO.N,GND*%
X174425000Y-95400000D03*
%TD*%
D11*
%TO.P,D2,1,K*%
%TO.N,/RXD*%
X179600000Y-91087500D03*
%TO.P,D2,2,A*%
%TO.N,Net-(D2-Pad2)*%
X179600000Y-89512500D03*
%TD*%
D12*
%TO.P,R2,1*%
%TO.N,+5V*%
X179600000Y-86375000D03*
%TO.P,R2,2*%
%TO.N,Net-(D2-Pad2)*%
X179600000Y-88025000D03*
%TD*%
D13*
%TO.P,D1,1,K*%
%TO.N,/TXD*%
X179600000Y-92612500D03*
%TO.P,D1,2,A*%
%TO.N,Net-(D1-Pad2)*%
X179600000Y-94187500D03*
%TD*%
D14*
%TO.P,U1,1,UD+*%
%TO.N,/D+*%
X171025000Y-89895000D03*
%TO.P,U1,2,UD-*%
%TO.N,/D-*%
X171025000Y-91165000D03*
%TO.P,U1,3,GND*%
%TO.N,GND*%
X171025000Y-92435000D03*
%TO.P,U1,4,~{RTS}*%
%TO.N,/RTS*%
X171025000Y-93705000D03*
%TO.P,U1,5,VCC*%
%TO.N,+5V*%
X175975000Y-93705000D03*
%TO.P,U1,6,TXD*%
%TO.N,/TXD*%
X175975000Y-92435000D03*
%TO.P,U1,7,RXD*%
%TO.N,/RXD*%
X175975000Y-91165000D03*
%TO.P,U1,8,V3*%
%TO.N,Net-(C2-Pad1)*%
X175975000Y-89895000D03*
%TD*%
D15*
%TO.P,R1,1*%
%TO.N,+5V*%
X179600000Y-97300000D03*
%TO.P,R1,2*%
%TO.N,Net-(D1-Pad2)*%
X179600000Y-95650000D03*
%TD*%
D16*
%TO.P,J2,5,Pin_5*%
%TO.N,+5V*%
X183525000Y-97080000D03*
%TO.P,J2,4,Pin_4*%
%TO.N,/TXD*%
X183525000Y-94540000D03*
%TO.P,J2,3,Pin_3*%
%TO.N,/RXD*%
X183525000Y-92000000D03*
%TO.P,J2,2,Pin_2*%
%TO.N,GND*%
X183525000Y-89460000D03*
D17*
%TO.P,J2,1,Pin_1*%
%TO.N,/RTS*%
X183525000Y-86920000D03*
%TD*%
D18*
%TO.P,J1,1,VBUS*%
%TO.N,+5V*%
X165850000Y-95500000D03*
%TO.P,J1,2,D-*%
%TO.N,/D-*%
X165850000Y-93000000D03*
%TO.P,J1,3,D+*%
%TO.N,/D+*%
X165850000Y-91000000D03*
%TO.P,J1,4,GND*%
%TO.N,GND*%
X165850000Y-88500000D03*
D19*
%TO.P,J1,5,Shield*%
X163100000Y-86300000D03*
X163100000Y-97700000D03*
%TD*%
D10*
%TO.P,C2,2*%
%TO.N,GND*%
X174425000Y-88200000D03*
%TO.P,C2,1*%
%TO.N,Net-(C2-Pad1)*%
X175975000Y-88200000D03*
%TD*%
D20*
%TO.N,+5V*%
X178500000Y-86500000D03*
X174500000Y-92900000D03*
%TO.N,/RTS*%
X173100000Y-93700000D03*
%TD*%
D21*
%TO.N,+5V*%
X178500000Y-86500000D02*
X179475000Y-86500000D01*
X179475000Y-86500000D02*
X179600000Y-86375000D01*
%TO.N,Net-(D1-Pad2)*%
X179600000Y-95650000D02*
X179600000Y-94187500D01*
%TO.N,Net-(D2-Pad2)*%
X179600000Y-89512500D02*
X179600000Y-88025000D01*
%TO.N,+5V*%
X174500000Y-92950500D02*
X175254500Y-93705000D01*
X175254500Y-93705000D02*
X175975000Y-93705000D01*
%TO.N,/RXD*%
X175975000Y-91165000D02*
X179622500Y-91165000D01*
X179622500Y-91165000D02*
X179700000Y-91087500D01*
X179700000Y-91087500D02*
X182812500Y-91087500D01*
X182812500Y-91087500D02*
X183725000Y-92000000D01*
%TO.N,Net-(C2-Pad1)*%
X175975000Y-88200000D02*
X175975000Y-89895000D01*
%TO.N,+5V*%
X179675000Y-86500000D02*
X179700000Y-86475000D01*
X175975000Y-95400000D02*
X175975000Y-93705000D01*
%TO.N,/RTS*%
X173095000Y-93705000D02*
X173100000Y-93700000D01*
X171025000Y-93705000D02*
X173095000Y-93705000D01*
D22*
%TO.N,+5V*%
X167650000Y-97300000D02*
X176000000Y-97300000D01*
X176000000Y-97300000D02*
X179700000Y-97300000D01*
X175975000Y-95400000D02*
X175975000Y-97275000D01*
X175975000Y-97275000D02*
X176000000Y-97300000D01*
X179700000Y-97300000D02*
X183505000Y-97300000D01*
X183505000Y-97300000D02*
X183725000Y-97080000D01*
X165850000Y-95500000D02*
X167650000Y-97300000D01*
D21*
%TO.N,/TXD*%
X179700000Y-92612500D02*
X181797500Y-92612500D01*
X181797500Y-92612500D02*
X183725000Y-94540000D01*
X175975000Y-92435000D02*
X179522500Y-92435000D01*
X179522500Y-92435000D02*
X179700000Y-92612500D01*
D23*
%TO.N,/D+*%
X167334000Y-91784000D02*
X168193588Y-91784000D01*
X169663589Y-90313999D02*
X170606001Y-90313999D01*
X165850000Y-91000000D02*
X166550000Y-91000000D01*
X170606001Y-90313999D02*
X171025000Y-89895000D01*
%TO.N,/D-*%
X165850000Y-93000000D02*
X166550000Y-93000000D01*
X167334000Y-92216000D02*
X168372532Y-92216000D01*
%TO.N,/D+*%
X168193588Y-91784000D02*
X169663589Y-90313999D01*
%TO.N,/D-*%
X166550000Y-93000000D02*
X167334000Y-92216000D01*
%TO.N,/D+*%
X166550000Y-91000000D02*
X167334000Y-91784000D01*
%TO.N,/D-*%
X168372532Y-92216000D02*
X169842531Y-90746001D01*
X169842531Y-90746001D02*
X170606001Y-90746001D01*
X170606001Y-90746001D02*
X171025000Y-91165000D01*
%TD*%
%TA.AperFunction,Conductor*%
%TO.N,GND*%
G36*
X184416621Y-84545502D02*
G01*
X184463114Y-84599158D01*
X184474500Y-84651500D01*
X184474500Y-85793500D01*
X184454498Y-85861621D01*
X184400842Y-85908114D01*
X184348500Y-85919500D01*
X182660180Y-85919500D01*
X182616278Y-85928233D01*
X182605960Y-85935127D01*
X182605958Y-85935128D01*
X182576815Y-85954601D01*
X182566496Y-85961496D01*
X182559601Y-85971815D01*
X182540128Y-86000958D01*
X182540127Y-86000960D01*
X182533233Y-86011278D01*
X182524500Y-86055180D01*
X182524500Y-87784820D01*
X182533233Y-87828722D01*
X182540127Y-87839040D01*
X182540128Y-87839042D01*
X182547644Y-87850290D01*
X182566496Y-87878504D01*
X182576815Y-87885399D01*
X182605958Y-87904872D01*
X182605960Y-87904873D01*
X182616278Y-87911767D01*
X182660180Y-87920500D01*
X183072703Y-87920500D01*
X183140824Y-87940502D01*
X183187317Y-87994158D01*
X183197421Y-88064432D01*
X183167927Y-88129012D01*
X183111848Y-88166265D01*
X183001868Y-88202212D01*
X182992359Y-88206209D01*
X182803463Y-88304542D01*
X182794738Y-88310036D01*
X182624433Y-88437905D01*
X182616726Y-88444748D01*
X182469590Y-88598717D01*
X182463104Y-88606727D01*
X182343098Y-88782649D01*
X182338000Y-88791623D01*
X182248338Y-88984783D01*
X182244775Y-88994470D01*
X182189389Y-89194183D01*
X182190912Y-89202607D01*
X182203292Y-89206000D01*
X183653000Y-89206000D01*
X183721121Y-89226002D01*
X183767614Y-89279658D01*
X183779000Y-89332000D01*
X183779000Y-89588000D01*
X183758998Y-89656121D01*
X183705342Y-89702614D01*
X183653000Y-89714000D01*
X182208225Y-89714000D01*
X182194694Y-89717973D01*
X182193257Y-89727966D01*
X182223565Y-89862446D01*
X182226645Y-89872275D01*
X182306770Y-90069603D01*
X182311413Y-90078794D01*
X182422694Y-90260388D01*
X182428777Y-90268699D01*
X182568213Y-90429667D01*
X182575579Y-90436881D01*
X182608310Y-90464055D01*
X182647946Y-90522958D01*
X182649444Y-90593939D01*
X182612330Y-90654462D01*
X182548386Y-90685311D01*
X182527826Y-90687000D01*
X180249000Y-90687000D01*
X180180879Y-90666998D01*
X180159982Y-90650173D01*
X180081009Y-90571337D01*
X180081008Y-90571336D01*
X180073640Y-90563981D01*
X180007416Y-90531610D01*
X179971984Y-90514290D01*
X179971983Y-90514290D01*
X179963199Y-90509996D01*
X179953524Y-90508585D01*
X179953522Y-90508584D01*
X179895778Y-90500160D01*
X179895772Y-90500160D01*
X179891251Y-90499500D01*
X179601111Y-90499500D01*
X179308750Y-90499501D01*
X179301963Y-90500500D01*
X179245862Y-90508757D01*
X179245861Y-90508757D01*
X179236175Y-90510183D01*
X179227387Y-90514498D01*
X179227386Y-90514498D01*
X179189845Y-90532930D01*
X179125829Y-90564361D01*
X179118476Y-90571727D01*
X179118473Y-90571729D01*
X179052612Y-90637705D01*
X179038981Y-90651360D01*
X179034409Y-90660714D01*
X179018219Y-90693834D01*
X178970333Y-90746250D01*
X178905019Y-90764500D01*
X177003261Y-90764500D01*
X176952313Y-90753740D01*
X176878993Y-90721325D01*
X176878992Y-90721325D01*
X176870327Y-90717494D01*
X176844646Y-90714500D01*
X175105354Y-90714500D01*
X175101650Y-90714941D01*
X175101647Y-90714941D01*
X175094254Y-90715821D01*
X175079154Y-90717618D01*
X175070514Y-90721456D01*
X175070513Y-90721456D01*
X174988117Y-90758055D01*
X174976847Y-90763061D01*
X174897759Y-90842287D01*
X174893056Y-90852924D01*
X174893055Y-90852926D01*
X174866735Y-90912462D01*
X174852494Y-90944673D01*
X174849500Y-90970354D01*
X174849500Y-91359646D01*
X174852618Y-91385846D01*
X174856456Y-91394486D01*
X174856456Y-91394487D01*
X174893138Y-91477070D01*
X174898061Y-91488153D01*
X174906294Y-91496372D01*
X174906295Y-91496373D01*
X174933610Y-91523640D01*
X174977287Y-91567241D01*
X174987924Y-91571944D01*
X174987926Y-91571945D01*
X175043584Y-91596551D01*
X175079673Y-91612506D01*
X175105354Y-91615500D01*
X176844646Y-91615500D01*
X176848350Y-91615059D01*
X176848353Y-91615059D01*
X176855746Y-91614179D01*
X176870846Y-91612382D01*
X176889821Y-91603954D01*
X176951968Y-91576349D01*
X177003116Y-91565500D01*
X179028635Y-91565500D01*
X179096756Y-91585502D01*
X179117654Y-91602328D01*
X179118599Y-91603271D01*
X179126360Y-91611019D01*
X179170962Y-91632821D01*
X179227591Y-91660502D01*
X179236801Y-91665004D01*
X179246476Y-91666415D01*
X179246478Y-91666416D01*
X179304222Y-91674840D01*
X179304228Y-91674840D01*
X179308749Y-91675500D01*
X179598889Y-91675500D01*
X179891250Y-91675499D01*
X179917710Y-91671604D01*
X179954138Y-91666243D01*
X179954139Y-91666243D01*
X179963825Y-91664817D01*
X179972613Y-91660502D01*
X179972614Y-91660502D01*
X180064826Y-91615227D01*
X180074171Y-91610639D01*
X180081524Y-91603273D01*
X180081527Y-91603271D01*
X180159679Y-91524982D01*
X180221962Y-91490903D01*
X180248852Y-91488000D01*
X182465581Y-91488000D01*
X182533702Y-91508002D01*
X182580195Y-91561658D01*
X182590299Y-91631932D01*
X182585683Y-91652099D01*
X182563984Y-91720502D01*
X182541628Y-91790978D01*
X182519757Y-91985963D01*
X182536175Y-92181483D01*
X182590258Y-92370091D01*
X182593076Y-92375574D01*
X182677123Y-92539113D01*
X182677126Y-92539117D01*
X182679944Y-92544601D01*
X182741597Y-92622388D01*
X182789804Y-92683211D01*
X182798013Y-92703491D01*
X182805725Y-92705169D01*
X182827003Y-92719803D01*
X182851511Y-92740661D01*
X182875451Y-92761035D01*
X182951238Y-92825535D01*
X182956616Y-92828541D01*
X182956618Y-92828542D01*
X182988480Y-92846349D01*
X183122513Y-92921257D01*
X183309118Y-92981889D01*
X183503946Y-93005121D01*
X183510081Y-93004649D01*
X183510083Y-93004649D01*
X183693434Y-92990541D01*
X183693438Y-92990540D01*
X183699576Y-92990068D01*
X183888556Y-92937303D01*
X184063689Y-92848837D01*
X184093515Y-92825535D01*
X184187427Y-92752163D01*
X184218303Y-92728040D01*
X184233590Y-92710330D01*
X184253118Y-92687707D01*
X184312771Y-92649209D01*
X184383767Y-92649073D01*
X184443567Y-92687343D01*
X184473183Y-92751867D01*
X184474500Y-92770037D01*
X184474500Y-93767289D01*
X184454498Y-93835410D01*
X184400842Y-93881903D01*
X184330568Y-93892007D01*
X184265988Y-93862513D01*
X184250856Y-93846923D01*
X184242253Y-93836374D01*
X184238361Y-93831602D01*
X184087180Y-93706535D01*
X183914585Y-93613213D01*
X183778853Y-93571197D01*
X183733039Y-93557015D01*
X183733036Y-93557014D01*
X183727152Y-93555193D01*
X183721027Y-93554549D01*
X183721026Y-93554549D01*
X183538147Y-93535327D01*
X183538146Y-93535327D01*
X183532019Y-93534683D01*
X183452898Y-93541884D01*
X183365371Y-93549849D01*
X183295717Y-93536104D01*
X183264856Y-93513463D01*
X182656245Y-92904852D01*
X182637773Y-92871025D01*
X182618362Y-92864389D01*
X182601963Y-92850570D01*
X182058409Y-92307016D01*
X182058405Y-92307013D01*
X182035842Y-92284450D01*
X182016246Y-92274465D01*
X181999393Y-92264139D01*
X181981590Y-92251204D01*
X181960666Y-92244405D01*
X181942406Y-92236841D01*
X181931641Y-92231356D01*
X181931637Y-92231355D01*
X181922804Y-92226854D01*
X181913013Y-92225303D01*
X181913012Y-92225303D01*
X181901078Y-92223413D01*
X181881853Y-92218797D01*
X181870368Y-92215065D01*
X181870364Y-92215064D01*
X181860933Y-92212000D01*
X180249000Y-92212000D01*
X180180879Y-92191998D01*
X180159982Y-92175173D01*
X180081009Y-92096337D01*
X180081008Y-92096336D01*
X180073640Y-92088981D01*
X179981687Y-92044033D01*
X179971984Y-92039290D01*
X179971983Y-92039290D01*
X179963199Y-92034996D01*
X179953524Y-92033585D01*
X179953522Y-92033584D01*
X179895778Y-92025160D01*
X179895772Y-92025160D01*
X179891251Y-92024500D01*
X179601111Y-92024500D01*
X179308750Y-92024501D01*
X179252644Y-92032759D01*
X179249940Y-92033157D01*
X179231592Y-92034500D01*
X177003261Y-92034500D01*
X176952313Y-92023740D01*
X176878993Y-91991325D01*
X176878992Y-91991325D01*
X176870327Y-91987494D01*
X176844646Y-91984500D01*
X175105354Y-91984500D01*
X175101650Y-91984941D01*
X175101647Y-91984941D01*
X175094254Y-91985821D01*
X175079154Y-91987618D01*
X175070514Y-91991456D01*
X175070513Y-91991456D01*
X174987482Y-92028337D01*
X174976847Y-92033061D01*
X174897759Y-92112287D01*
X174852494Y-92214673D01*
X174849500Y-92240354D01*
X174849500Y-92312882D01*
X174829498Y-92381003D01*
X174775842Y-92427496D01*
X174705568Y-92437600D01*
X174687398Y-92433599D01*
X174622207Y-92414103D01*
X174574739Y-92399907D01*
X174565763Y-92399852D01*
X174565762Y-92399852D01*
X174505555Y-92399484D01*
X174431376Y-92399031D01*
X174293529Y-92438428D01*
X174172280Y-92514930D01*
X174077377Y-92622388D01*
X174016447Y-92752163D01*
X174013664Y-92770037D01*
X173996770Y-92878544D01*
X173994391Y-92893823D01*
X173995555Y-92902725D01*
X173995555Y-92902728D01*
X174000293Y-92938960D01*
X174012980Y-93035979D01*
X174070720Y-93167203D01*
X174076497Y-93174076D01*
X174076498Y-93174077D01*
X174157190Y-93270072D01*
X174162970Y-93276948D01*
X174282313Y-93356390D01*
X174290879Y-93359066D01*
X174290881Y-93359067D01*
X174335884Y-93373126D01*
X174387407Y-93404299D01*
X174814144Y-93831036D01*
X174848170Y-93893348D01*
X174850166Y-93905241D01*
X174852618Y-93925846D01*
X174856456Y-93934486D01*
X174856456Y-93934487D01*
X174878295Y-93983653D01*
X174898061Y-94028153D01*
X174977287Y-94107241D01*
X174987924Y-94111944D01*
X174987926Y-94111945D01*
X175037870Y-94134025D01*
X175079673Y-94152506D01*
X175105354Y-94155500D01*
X175448500Y-94155500D01*
X175516621Y-94175502D01*
X175563114Y-94229158D01*
X175574500Y-94281500D01*
X175574500Y-94744795D01*
X175554498Y-94812916D01*
X175528342Y-94840417D01*
X175528387Y-94840462D01*
X175521032Y-94847830D01*
X175512551Y-94856325D01*
X175450268Y-94890403D01*
X175379448Y-94885398D01*
X175322576Y-94842900D01*
X175316236Y-94833608D01*
X175232212Y-94697827D01*
X175223176Y-94686426D01*
X175112571Y-94576014D01*
X175101160Y-94567002D01*
X174968120Y-94484996D01*
X174954939Y-94478849D01*
X174806186Y-94429509D01*
X174792810Y-94426642D01*
X174701903Y-94417328D01*
X174696874Y-94417071D01*
X174681876Y-94421475D01*
X174680671Y-94422865D01*
X174679000Y-94430548D01*
X174679000Y-96364885D01*
X174683475Y-96380124D01*
X174684865Y-96381329D01*
X174692548Y-96383000D01*
X174695438Y-96383000D01*
X174701953Y-96382663D01*
X174794057Y-96373106D01*
X174807456Y-96370212D01*
X174956107Y-96320619D01*
X174969286Y-96314445D01*
X175102173Y-96232212D01*
X175119311Y-96218629D01*
X175121159Y-96220961D01*
X175171584Y-96193356D01*
X175242405Y-96198345D01*
X175299287Y-96240830D01*
X175324169Y-96307324D01*
X175324500Y-96316448D01*
X175324500Y-96523500D01*
X175304498Y-96591621D01*
X175250842Y-96638114D01*
X175198500Y-96649500D01*
X167971636Y-96649500D01*
X167903515Y-96629498D01*
X167882541Y-96612595D01*
X167287405Y-96017459D01*
X167253379Y-95955147D01*
X167250500Y-95928364D01*
X167250500Y-95695438D01*
X173467000Y-95695438D01*
X173467337Y-95701953D01*
X173476894Y-95794057D01*
X173479788Y-95807456D01*
X173529381Y-95956107D01*
X173535555Y-95969286D01*
X173617788Y-96102173D01*
X173626824Y-96113574D01*
X173737429Y-96223986D01*
X173748840Y-96232998D01*
X173881880Y-96315004D01*
X173895061Y-96321151D01*
X174043814Y-96370491D01*
X174057190Y-96373358D01*
X174148097Y-96382672D01*
X174153126Y-96382929D01*
X174168124Y-96378525D01*
X174169329Y-96377135D01*
X174171000Y-96369452D01*
X174171000Y-95672115D01*
X174166525Y-95656876D01*
X174165135Y-95655671D01*
X174157452Y-95654000D01*
X173485115Y-95654000D01*
X173469876Y-95658475D01*
X173468671Y-95659865D01*
X173467000Y-95667548D01*
X173467000Y-95695438D01*
X167250500Y-95695438D01*
X167250500Y-95127885D01*
X173467000Y-95127885D01*
X173471475Y-95143124D01*
X173472865Y-95144329D01*
X173480548Y-95146000D01*
X174152885Y-95146000D01*
X174168124Y-95141525D01*
X174169329Y-95140135D01*
X174171000Y-95132452D01*
X174171000Y-94435115D01*
X174166525Y-94419876D01*
X174165135Y-94418671D01*
X174157452Y-94417000D01*
X174154562Y-94417000D01*
X174148047Y-94417337D01*
X174055943Y-94426894D01*
X174042544Y-94429788D01*
X173893893Y-94479381D01*
X173880714Y-94485555D01*
X173747827Y-94567788D01*
X173736426Y-94576824D01*
X173626014Y-94687429D01*
X173617002Y-94698840D01*
X173534996Y-94831880D01*
X173528849Y-94845061D01*
X173479509Y-94993814D01*
X173476642Y-95007190D01*
X173467328Y-95098097D01*
X173467000Y-95104514D01*
X173467000Y-95127885D01*
X167250500Y-95127885D01*
X167250500Y-94935180D01*
X167241767Y-94891278D01*
X167234873Y-94880960D01*
X167234872Y-94880958D01*
X167215399Y-94851815D01*
X167208504Y-94841496D01*
X167194113Y-94831880D01*
X167169042Y-94815128D01*
X167169040Y-94815127D01*
X167158722Y-94808233D01*
X167114820Y-94799500D01*
X164585180Y-94799500D01*
X164541278Y-94808233D01*
X164530960Y-94815127D01*
X164530958Y-94815128D01*
X164505887Y-94831880D01*
X164491496Y-94841496D01*
X164484601Y-94851815D01*
X164465128Y-94880958D01*
X164465127Y-94880960D01*
X164458233Y-94891278D01*
X164449500Y-94935180D01*
X164449500Y-96064820D01*
X164458233Y-96108722D01*
X164465128Y-96119042D01*
X164469876Y-96130503D01*
X164466831Y-96131764D01*
X164482049Y-96180372D01*
X164463263Y-96248838D01*
X164410444Y-96296279D01*
X164340361Y-96307633D01*
X164322397Y-96304033D01*
X164179121Y-96264299D01*
X164169001Y-96262368D01*
X163981748Y-96242356D01*
X163975056Y-96242000D01*
X163372115Y-96242000D01*
X163356876Y-96246475D01*
X163355671Y-96247865D01*
X163354000Y-96255548D01*
X163354000Y-97427885D01*
X163358475Y-97443124D01*
X163359865Y-97444329D01*
X163367548Y-97446000D01*
X165318067Y-97446000D01*
X165331411Y-97442082D01*
X165333398Y-97427806D01*
X165323950Y-97366067D01*
X165321561Y-97356039D01*
X165250290Y-97137984D01*
X165246293Y-97128475D01*
X165140367Y-96924993D01*
X165134873Y-96916268D01*
X164997131Y-96732813D01*
X164990288Y-96725106D01*
X164824431Y-96566609D01*
X164816425Y-96560126D01*
X164626530Y-96430589D01*
X164581527Y-96375677D01*
X164573356Y-96305152D01*
X164604610Y-96241405D01*
X164665367Y-96204675D01*
X164697534Y-96200500D01*
X165578364Y-96200500D01*
X165646485Y-96220502D01*
X165667459Y-96237405D01*
X167132752Y-97702698D01*
X167140593Y-97711315D01*
X167144798Y-97717940D01*
X167150577Y-97723367D01*
X167150578Y-97723368D01*
X167195816Y-97765849D01*
X167198658Y-97768604D01*
X167218965Y-97788911D01*
X167222096Y-97791340D01*
X167222102Y-97791345D01*
X167222377Y-97791558D01*
X167231390Y-97799255D01*
X167264607Y-97830448D01*
X167271554Y-97834267D01*
X167283066Y-97840596D01*
X167299590Y-97851450D01*
X167316236Y-97864362D01*
X167350681Y-97879268D01*
X167358041Y-97882453D01*
X167368700Y-97887675D01*
X167401686Y-97905809D01*
X167401690Y-97905810D01*
X167408632Y-97909627D01*
X167416305Y-97911597D01*
X167416307Y-97911598D01*
X167429036Y-97914866D01*
X167447740Y-97921270D01*
X167459793Y-97926486D01*
X167459802Y-97926489D01*
X167467073Y-97929635D01*
X167474901Y-97930875D01*
X167474902Y-97930875D01*
X167512067Y-97936761D01*
X167523693Y-97939169D01*
X167560146Y-97948529D01*
X167560147Y-97948529D01*
X167567823Y-97950500D01*
X167588890Y-97950500D01*
X167608602Y-97952051D01*
X167629405Y-97955346D01*
X167637297Y-97954600D01*
X167674756Y-97951059D01*
X167686614Y-97950500D01*
X175938890Y-97950500D01*
X175958602Y-97952051D01*
X175979405Y-97955346D01*
X175987297Y-97954600D01*
X176024756Y-97951059D01*
X176036614Y-97950500D01*
X182998874Y-97950500D01*
X183060344Y-97966512D01*
X183070511Y-97972194D01*
X183122513Y-98001257D01*
X183309118Y-98061889D01*
X183503946Y-98085121D01*
X183510081Y-98084649D01*
X183510083Y-98084649D01*
X183693434Y-98070541D01*
X183693438Y-98070540D01*
X183699576Y-98070068D01*
X183888556Y-98017303D01*
X184063689Y-97928837D01*
X184073375Y-97921270D01*
X184184734Y-97834267D01*
X184218303Y-97808040D01*
X184225878Y-97799264D01*
X184253118Y-97767707D01*
X184312771Y-97729209D01*
X184383767Y-97729073D01*
X184443567Y-97767343D01*
X184473183Y-97831867D01*
X184474500Y-97850037D01*
X184474500Y-99348500D01*
X184454498Y-99416621D01*
X184400842Y-99463114D01*
X184348500Y-99474500D01*
X160651500Y-99474500D01*
X160583379Y-99454498D01*
X160536886Y-99400842D01*
X160525500Y-99348500D01*
X160525500Y-97972194D01*
X160866602Y-97972194D01*
X160876050Y-98033933D01*
X160878439Y-98043961D01*
X160949710Y-98262016D01*
X160953707Y-98271525D01*
X161059633Y-98475007D01*
X161065127Y-98483732D01*
X161202869Y-98667187D01*
X161209712Y-98674894D01*
X161375569Y-98833391D01*
X161383575Y-98839874D01*
X161573094Y-98969155D01*
X161582053Y-98974244D01*
X161790145Y-99070837D01*
X161799813Y-99074394D01*
X162020879Y-99135701D01*
X162030999Y-99137632D01*
X162218252Y-99157644D01*
X162224944Y-99158000D01*
X162827885Y-99158000D01*
X162843124Y-99153525D01*
X162844329Y-99152135D01*
X162846000Y-99144452D01*
X162846000Y-99139885D01*
X163354000Y-99139885D01*
X163358475Y-99155124D01*
X163359865Y-99156329D01*
X163367548Y-99158000D01*
X163958190Y-99158000D01*
X163963363Y-99157788D01*
X164133794Y-99143776D01*
X164143956Y-99142093D01*
X164366461Y-99086204D01*
X164376216Y-99082883D01*
X164586590Y-98991409D01*
X164595688Y-98986531D01*
X164788301Y-98861925D01*
X164796461Y-98855641D01*
X164966149Y-98701237D01*
X164973170Y-98693707D01*
X165115356Y-98513668D01*
X165121061Y-98505081D01*
X165231926Y-98304250D01*
X165236156Y-98294838D01*
X165312736Y-98078584D01*
X165315365Y-98068634D01*
X165332607Y-97971836D01*
X165331148Y-97958540D01*
X165316592Y-97954000D01*
X163372115Y-97954000D01*
X163356876Y-97958475D01*
X163355671Y-97959865D01*
X163354000Y-97967548D01*
X163354000Y-99139885D01*
X162846000Y-99139885D01*
X162846000Y-97972115D01*
X162841525Y-97956876D01*
X162840135Y-97955671D01*
X162832452Y-97954000D01*
X160881933Y-97954000D01*
X160868589Y-97957918D01*
X160866602Y-97972194D01*
X160525500Y-97972194D01*
X160525500Y-97428164D01*
X160867393Y-97428164D01*
X160868852Y-97441460D01*
X160883408Y-97446000D01*
X162827885Y-97446000D01*
X162843124Y-97441525D01*
X162844329Y-97440135D01*
X162846000Y-97432452D01*
X162846000Y-96260115D01*
X162841525Y-96244876D01*
X162840135Y-96243671D01*
X162832452Y-96242000D01*
X162241810Y-96242000D01*
X162236637Y-96242212D01*
X162066206Y-96256224D01*
X162056044Y-96257907D01*
X161833539Y-96313796D01*
X161823784Y-96317117D01*
X161613410Y-96408591D01*
X161604312Y-96413469D01*
X161411699Y-96538075D01*
X161403539Y-96544359D01*
X161233851Y-96698763D01*
X161226830Y-96706293D01*
X161084644Y-96886332D01*
X161078939Y-96894919D01*
X160968074Y-97095750D01*
X160963844Y-97105162D01*
X160887264Y-97321416D01*
X160884635Y-97331366D01*
X160867393Y-97428164D01*
X160525500Y-97428164D01*
X160525500Y-94294376D01*
X162294455Y-94294376D01*
X162295191Y-94301379D01*
X162295191Y-94301380D01*
X162310371Y-94445808D01*
X162313227Y-94472983D01*
X162315498Y-94479654D01*
X162367200Y-94631527D01*
X162371103Y-94642993D01*
X162465206Y-94795955D01*
X162470132Y-94800986D01*
X162470135Y-94800989D01*
X162519908Y-94851815D01*
X162590859Y-94924268D01*
X162596784Y-94928087D01*
X162596786Y-94928088D01*
X162607791Y-94935180D01*
X162741817Y-95021554D01*
X162748437Y-95023963D01*
X162748440Y-95023965D01*
X162903961Y-95080570D01*
X162903964Y-95080571D01*
X162910578Y-95082978D01*
X162937121Y-95086331D01*
X163045355Y-95100004D01*
X163045358Y-95100004D01*
X163049283Y-95100500D01*
X163145155Y-95100500D01*
X163278472Y-95085546D01*
X163285847Y-95082978D01*
X163401739Y-95042620D01*
X163448073Y-95026485D01*
X163455965Y-95021554D01*
X163594401Y-94935049D01*
X163600375Y-94931316D01*
X163684446Y-94847830D01*
X163722810Y-94809733D01*
X163722813Y-94809729D01*
X163727807Y-94804770D01*
X163824037Y-94653136D01*
X163837871Y-94614286D01*
X163881919Y-94490586D01*
X163881920Y-94490581D01*
X163884281Y-94483951D01*
X163885114Y-94476965D01*
X163885115Y-94476961D01*
X163902522Y-94330978D01*
X163905545Y-94305624D01*
X163903010Y-94281500D01*
X163887510Y-94134025D01*
X163887509Y-94134021D01*
X163886773Y-94127017D01*
X163857040Y-94039676D01*
X163831168Y-93963677D01*
X163831167Y-93963674D01*
X163828897Y-93957007D01*
X163734794Y-93804045D01*
X163729868Y-93799014D01*
X163729865Y-93799011D01*
X163643154Y-93710465D01*
X163609141Y-93675732D01*
X163602322Y-93671337D01*
X163464109Y-93582265D01*
X163458183Y-93578446D01*
X163451563Y-93576037D01*
X163451560Y-93576035D01*
X163420747Y-93564820D01*
X164449500Y-93564820D01*
X164458233Y-93608722D01*
X164465127Y-93619040D01*
X164465128Y-93619042D01*
X164484601Y-93648185D01*
X164491496Y-93658504D01*
X164501815Y-93665399D01*
X164530958Y-93684872D01*
X164530960Y-93684873D01*
X164541278Y-93691767D01*
X164585180Y-93700500D01*
X167114820Y-93700500D01*
X167158722Y-93691767D01*
X167169040Y-93684873D01*
X167169042Y-93684872D01*
X167198185Y-93665399D01*
X167208504Y-93658504D01*
X167215399Y-93648185D01*
X167234872Y-93619042D01*
X167234873Y-93619040D01*
X167241767Y-93608722D01*
X167250500Y-93564820D01*
X167250500Y-92762520D01*
X167268602Y-92700871D01*
X169548456Y-92700871D01*
X169589107Y-92840790D01*
X169595352Y-92855221D01*
X169671911Y-92984678D01*
X169681551Y-92997104D01*
X169787896Y-93103449D01*
X169800322Y-93113089D01*
X169922403Y-93185286D01*
X169970855Y-93237179D01*
X169983561Y-93307029D01*
X169962228Y-93364927D01*
X169955981Y-93374051D01*
X169947759Y-93382287D01*
X169902494Y-93484673D01*
X169899500Y-93510354D01*
X169899500Y-93899646D01*
X169902618Y-93925846D01*
X169906456Y-93934486D01*
X169906456Y-93934487D01*
X169928295Y-93983653D01*
X169948061Y-94028153D01*
X170027287Y-94107241D01*
X170037924Y-94111944D01*
X170037926Y-94111945D01*
X170087870Y-94134025D01*
X170129673Y-94152506D01*
X170155354Y-94155500D01*
X171894646Y-94155500D01*
X171898350Y-94155059D01*
X171898353Y-94155059D01*
X171905746Y-94154179D01*
X171920846Y-94152382D01*
X171939821Y-94143954D01*
X172001968Y-94116349D01*
X172053116Y-94105500D01*
X172767761Y-94105500D01*
X172837580Y-94126613D01*
X172872448Y-94149823D01*
X172882313Y-94156390D01*
X173019157Y-94199142D01*
X173028129Y-94199306D01*
X173028132Y-94199307D01*
X173093463Y-94200504D01*
X173162499Y-94201770D01*
X173171533Y-94199307D01*
X173292158Y-94166421D01*
X173292160Y-94166420D01*
X173300817Y-94164060D01*
X173422991Y-94089045D01*
X173478506Y-94027713D01*
X173513178Y-93989407D01*
X173519200Y-93982754D01*
X173562517Y-93893348D01*
X173577795Y-93861814D01*
X173577795Y-93861813D01*
X173581710Y-93853733D01*
X173605496Y-93712354D01*
X173605647Y-93700000D01*
X173593218Y-93613213D01*
X173586596Y-93566968D01*
X173586595Y-93566965D01*
X173585323Y-93558082D01*
X173525984Y-93427572D01*
X173505931Y-93404299D01*
X173438260Y-93325763D01*
X173438257Y-93325760D01*
X173432400Y-93318963D01*
X173312095Y-93240985D01*
X173174739Y-93199907D01*
X173165763Y-93199852D01*
X173165762Y-93199852D01*
X173105555Y-93199484D01*
X173031376Y-93199031D01*
X172893529Y-93238428D01*
X172843376Y-93270072D01*
X172819618Y-93285062D01*
X172752383Y-93304500D01*
X172365243Y-93304500D01*
X172297122Y-93284498D01*
X172250629Y-93230842D01*
X172240525Y-93160568D01*
X172270019Y-93095988D01*
X172276148Y-93089405D01*
X172368449Y-92997104D01*
X172378089Y-92984678D01*
X172454648Y-92855221D01*
X172460893Y-92840790D01*
X172499939Y-92706395D01*
X172499899Y-92692294D01*
X172492630Y-92689000D01*
X169563122Y-92689000D01*
X169549591Y-92692973D01*
X169548456Y-92700871D01*
X167268602Y-92700871D01*
X167270502Y-92694399D01*
X167287405Y-92673425D01*
X167417425Y-92543405D01*
X167479737Y-92509379D01*
X167506520Y-92506500D01*
X168322080Y-92506500D01*
X168324442Y-92506674D01*
X168329360Y-92508362D01*
X168340982Y-92507926D01*
X168340984Y-92507926D01*
X168376586Y-92506589D01*
X168381313Y-92506500D01*
X168399551Y-92506500D01*
X168404174Y-92505639D01*
X168407310Y-92505436D01*
X168437504Y-92504302D01*
X168448192Y-92499710D01*
X168453898Y-92498424D01*
X168462018Y-92495957D01*
X168467484Y-92493848D01*
X168478923Y-92491718D01*
X168488824Y-92485615D01*
X168488826Y-92485614D01*
X168498948Y-92479374D01*
X168515329Y-92470865D01*
X168528767Y-92465092D01*
X168528769Y-92465091D01*
X168536936Y-92461582D01*
X168541656Y-92457705D01*
X168543847Y-92455514D01*
X168546111Y-92453461D01*
X168546303Y-92453673D01*
X168553355Y-92448098D01*
X168561144Y-92441035D01*
X168571047Y-92434931D01*
X168578087Y-92425673D01*
X168578089Y-92425671D01*
X168586885Y-92414103D01*
X168598086Y-92401275D01*
X169688333Y-91311028D01*
X169750645Y-91277002D01*
X169821460Y-91282067D01*
X169878296Y-91324614D01*
X169895747Y-91368235D01*
X169898995Y-91367342D01*
X169901501Y-91376459D01*
X169902618Y-91385846D01*
X169906456Y-91394486D01*
X169906456Y-91394487D01*
X169943138Y-91477070D01*
X169948061Y-91488153D01*
X169956296Y-91496374D01*
X169962138Y-91504874D01*
X169984237Y-91572343D01*
X169966351Y-91641050D01*
X169922436Y-91684694D01*
X169800323Y-91756911D01*
X169787896Y-91766551D01*
X169681551Y-91872896D01*
X169671911Y-91885322D01*
X169595352Y-92014779D01*
X169589107Y-92029210D01*
X169550061Y-92163605D01*
X169550101Y-92177706D01*
X169557370Y-92181000D01*
X172486878Y-92181000D01*
X172500409Y-92177027D01*
X172501544Y-92169129D01*
X172460893Y-92029210D01*
X172454648Y-92014779D01*
X172378089Y-91885322D01*
X172368449Y-91872896D01*
X172262104Y-91766551D01*
X172249678Y-91756911D01*
X172127597Y-91684714D01*
X172079145Y-91632821D01*
X172066439Y-91562971D01*
X172087772Y-91505073D01*
X172094019Y-91495949D01*
X172102241Y-91487713D01*
X172147506Y-91385327D01*
X172150500Y-91359646D01*
X172150500Y-90970354D01*
X172147382Y-90944154D01*
X172101939Y-90841847D01*
X172022713Y-90762759D01*
X172012076Y-90758056D01*
X172012074Y-90758055D01*
X171940028Y-90726204D01*
X171920327Y-90717494D01*
X171894646Y-90714500D01*
X171037519Y-90714500D01*
X170969398Y-90694498D01*
X170948424Y-90677595D01*
X170889924Y-90619095D01*
X170855898Y-90556783D01*
X170860963Y-90485968D01*
X170889924Y-90440905D01*
X170948424Y-90382405D01*
X171010736Y-90348379D01*
X171037519Y-90345500D01*
X171894646Y-90345500D01*
X171898350Y-90345059D01*
X171898353Y-90345059D01*
X171905746Y-90344179D01*
X171920846Y-90342382D01*
X171945760Y-90331316D01*
X172012518Y-90301663D01*
X172023153Y-90296939D01*
X172102241Y-90217713D01*
X172107964Y-90204770D01*
X172143675Y-90123992D01*
X172147506Y-90115327D01*
X172150500Y-90089646D01*
X172150500Y-89700354D01*
X172147382Y-89674154D01*
X172101939Y-89571847D01*
X172022713Y-89492759D01*
X172012076Y-89488056D01*
X172012074Y-89488055D01*
X171952538Y-89461735D01*
X171920327Y-89447494D01*
X171894646Y-89444500D01*
X170155354Y-89444500D01*
X170151650Y-89444941D01*
X170151647Y-89444941D01*
X170144254Y-89445821D01*
X170129154Y-89447618D01*
X170026847Y-89493061D01*
X170018628Y-89501294D01*
X170018627Y-89501295D01*
X169996921Y-89523039D01*
X169947759Y-89572287D01*
X169902494Y-89674673D01*
X169899500Y-89700354D01*
X169899500Y-89897499D01*
X169879498Y-89965620D01*
X169825842Y-90012113D01*
X169773500Y-90023499D01*
X169714039Y-90023499D01*
X169711678Y-90023326D01*
X169706760Y-90021637D01*
X169659603Y-90023408D01*
X169659546Y-90023410D01*
X169654818Y-90023499D01*
X169636570Y-90023499D01*
X169631947Y-90024360D01*
X169628792Y-90024565D01*
X169624238Y-90024736D01*
X169610241Y-90025261D01*
X169610239Y-90025262D01*
X169598617Y-90025698D01*
X169587931Y-90030289D01*
X169582216Y-90031577D01*
X169574081Y-90034049D01*
X169568633Y-90036151D01*
X169557198Y-90038281D01*
X169547298Y-90044384D01*
X169547295Y-90044385D01*
X169537174Y-90050624D01*
X169520794Y-90059133D01*
X169507362Y-90064904D01*
X169499185Y-90068417D01*
X169494465Y-90072294D01*
X169492278Y-90074481D01*
X169490010Y-90076538D01*
X169489818Y-90076326D01*
X169482766Y-90081901D01*
X169474977Y-90088964D01*
X169465074Y-90095068D01*
X169458034Y-90104326D01*
X169458032Y-90104328D01*
X169449236Y-90115896D01*
X169438035Y-90128724D01*
X168110164Y-91456595D01*
X168047852Y-91490621D01*
X168021069Y-91493500D01*
X167506519Y-91493500D01*
X167438398Y-91473498D01*
X167417424Y-91456595D01*
X167287405Y-91326576D01*
X167253379Y-91264264D01*
X167250500Y-91237481D01*
X167250500Y-90435180D01*
X167241767Y-90391278D01*
X167234873Y-90380960D01*
X167234872Y-90380958D01*
X167215399Y-90351815D01*
X167208504Y-90341496D01*
X167198185Y-90334601D01*
X167169042Y-90315128D01*
X167169040Y-90315127D01*
X167158722Y-90308233D01*
X167114820Y-90299500D01*
X164585180Y-90299500D01*
X164541278Y-90308233D01*
X164530960Y-90315127D01*
X164530958Y-90315128D01*
X164501815Y-90334601D01*
X164491496Y-90341496D01*
X164484601Y-90351815D01*
X164465128Y-90380958D01*
X164465127Y-90380960D01*
X164458233Y-90391278D01*
X164449500Y-90435180D01*
X164449500Y-91564820D01*
X164458233Y-91608722D01*
X164465127Y-91619040D01*
X164465128Y-91619042D01*
X164484601Y-91648185D01*
X164491496Y-91658504D01*
X164501815Y-91665399D01*
X164530958Y-91684872D01*
X164530960Y-91684873D01*
X164541278Y-91691767D01*
X164585180Y-91700500D01*
X166787480Y-91700500D01*
X166855601Y-91720502D01*
X166876575Y-91737405D01*
X167050076Y-91910906D01*
X167084102Y-91973218D01*
X167079037Y-92044033D01*
X167050080Y-92089091D01*
X166876574Y-92262597D01*
X166814264Y-92296621D01*
X166787481Y-92299500D01*
X164585180Y-92299500D01*
X164541278Y-92308233D01*
X164530960Y-92315127D01*
X164530958Y-92315128D01*
X164501815Y-92334601D01*
X164491496Y-92341496D01*
X164484601Y-92351815D01*
X164465128Y-92380958D01*
X164465127Y-92380960D01*
X164458233Y-92391278D01*
X164449500Y-92435180D01*
X164449500Y-93564820D01*
X163420747Y-93564820D01*
X163296039Y-93519430D01*
X163296036Y-93519429D01*
X163289422Y-93517022D01*
X163232692Y-93509856D01*
X163154645Y-93499996D01*
X163154642Y-93499996D01*
X163150717Y-93499500D01*
X163054845Y-93499500D01*
X162921528Y-93514454D01*
X162914875Y-93516771D01*
X162914874Y-93516771D01*
X162859357Y-93536104D01*
X162751927Y-93573515D01*
X162745953Y-93577248D01*
X162745951Y-93577249D01*
X162632430Y-93648185D01*
X162599625Y-93668684D01*
X162550821Y-93717149D01*
X162477190Y-93790267D01*
X162477187Y-93790271D01*
X162472193Y-93795230D01*
X162468419Y-93801176D01*
X162468418Y-93801178D01*
X162446694Y-93835410D01*
X162375963Y-93946864D01*
X162373598Y-93953506D01*
X162318081Y-94109414D01*
X162318080Y-94109419D01*
X162315719Y-94116049D01*
X162314886Y-94123035D01*
X162314885Y-94123039D01*
X162306130Y-94196464D01*
X162294455Y-94294376D01*
X160525500Y-94294376D01*
X160525500Y-89694376D01*
X162294455Y-89694376D01*
X162295191Y-89701379D01*
X162295191Y-89701380D01*
X162312120Y-89862446D01*
X162313227Y-89872983D01*
X162315498Y-89879654D01*
X162367217Y-90031577D01*
X162371103Y-90042993D01*
X162374793Y-90048991D01*
X162374794Y-90048993D01*
X162406481Y-90100499D01*
X162465206Y-90195955D01*
X162470132Y-90200986D01*
X162470135Y-90200989D01*
X162494574Y-90225945D01*
X162590859Y-90324268D01*
X162596784Y-90328087D01*
X162596786Y-90328088D01*
X162735891Y-90417735D01*
X162741817Y-90421554D01*
X162748437Y-90423963D01*
X162748440Y-90423965D01*
X162903961Y-90480570D01*
X162903964Y-90480571D01*
X162910578Y-90482978D01*
X162937121Y-90486331D01*
X163045355Y-90500004D01*
X163045358Y-90500004D01*
X163049283Y-90500500D01*
X163145155Y-90500500D01*
X163278472Y-90485546D01*
X163285847Y-90482978D01*
X163406664Y-90440905D01*
X163448073Y-90426485D01*
X163455965Y-90421554D01*
X163594401Y-90335049D01*
X163600375Y-90331316D01*
X163706484Y-90225945D01*
X163722810Y-90209733D01*
X163722813Y-90209729D01*
X163727807Y-90204770D01*
X163824037Y-90053136D01*
X163858438Y-89956527D01*
X163881919Y-89890586D01*
X163881920Y-89890581D01*
X163884281Y-89883951D01*
X163885114Y-89876965D01*
X163885115Y-89876961D01*
X163904711Y-89712617D01*
X163905545Y-89705624D01*
X163904809Y-89698620D01*
X163887510Y-89534025D01*
X163887509Y-89534021D01*
X163886773Y-89527017D01*
X163875801Y-89494786D01*
X163831168Y-89363677D01*
X163831167Y-89363674D01*
X163828897Y-89357007D01*
X163734794Y-89204045D01*
X163729868Y-89199014D01*
X163729865Y-89199011D01*
X163627685Y-89094669D01*
X164092001Y-89094669D01*
X164092371Y-89101490D01*
X164097895Y-89152352D01*
X164101521Y-89167604D01*
X164146676Y-89288054D01*
X164155214Y-89303649D01*
X164231715Y-89405724D01*
X164244276Y-89418285D01*
X164346351Y-89494786D01*
X164361946Y-89503324D01*
X164482394Y-89548478D01*
X164497649Y-89552105D01*
X164548514Y-89557631D01*
X164555328Y-89558000D01*
X165577885Y-89558000D01*
X165593124Y-89553525D01*
X165594329Y-89552135D01*
X165596000Y-89544452D01*
X165596000Y-89539884D01*
X166104000Y-89539884D01*
X166108475Y-89555123D01*
X166109865Y-89556328D01*
X166117548Y-89557999D01*
X167144669Y-89557999D01*
X167151490Y-89557629D01*
X167202352Y-89552105D01*
X167217604Y-89548479D01*
X167338054Y-89503324D01*
X167353649Y-89494786D01*
X167455724Y-89418285D01*
X167468285Y-89405724D01*
X167544786Y-89303649D01*
X167553324Y-89288054D01*
X167598478Y-89167606D01*
X167602105Y-89152351D01*
X167607631Y-89101486D01*
X167608000Y-89094672D01*
X167608000Y-88772115D01*
X167603525Y-88756876D01*
X167602135Y-88755671D01*
X167594452Y-88754000D01*
X166122115Y-88754000D01*
X166106876Y-88758475D01*
X166105671Y-88759865D01*
X166104000Y-88767548D01*
X166104000Y-89539884D01*
X165596000Y-89539884D01*
X165596000Y-88772115D01*
X165591525Y-88756876D01*
X165590135Y-88755671D01*
X165582452Y-88754000D01*
X164110116Y-88754000D01*
X164094877Y-88758475D01*
X164093672Y-88759865D01*
X164092001Y-88767548D01*
X164092001Y-89094669D01*
X163627685Y-89094669D01*
X163618387Y-89085174D01*
X163609141Y-89075732D01*
X163597878Y-89068473D01*
X163464109Y-88982265D01*
X163458183Y-88978446D01*
X163451563Y-88976037D01*
X163451560Y-88976035D01*
X163296039Y-88919430D01*
X163296036Y-88919429D01*
X163289422Y-88917022D01*
X163232692Y-88909856D01*
X163154645Y-88899996D01*
X163154642Y-88899996D01*
X163150717Y-88899500D01*
X163054845Y-88899500D01*
X162921528Y-88914454D01*
X162914875Y-88916771D01*
X162914874Y-88916771D01*
X162848462Y-88939898D01*
X162751927Y-88973515D01*
X162745953Y-88977248D01*
X162745951Y-88977249D01*
X162657992Y-89032212D01*
X162599625Y-89068684D01*
X162546791Y-89121151D01*
X162477190Y-89190267D01*
X162477187Y-89190271D01*
X162472193Y-89195230D01*
X162375963Y-89346864D01*
X162373598Y-89353506D01*
X162318081Y-89509414D01*
X162318080Y-89509419D01*
X162315719Y-89516049D01*
X162314886Y-89523035D01*
X162314885Y-89523039D01*
X162309013Y-89572287D01*
X162294455Y-89694376D01*
X160525500Y-89694376D01*
X160525500Y-88495438D01*
X173467000Y-88495438D01*
X173467337Y-88501953D01*
X173476894Y-88594057D01*
X173479788Y-88607456D01*
X173529381Y-88756107D01*
X173535555Y-88769286D01*
X173617788Y-88902173D01*
X173626824Y-88913574D01*
X173737429Y-89023986D01*
X173748840Y-89032998D01*
X173881880Y-89115004D01*
X173895061Y-89121151D01*
X174043814Y-89170491D01*
X174057190Y-89173358D01*
X174148097Y-89182672D01*
X174153126Y-89182929D01*
X174168124Y-89178525D01*
X174169329Y-89177135D01*
X174171000Y-89169452D01*
X174171000Y-89164885D01*
X174679000Y-89164885D01*
X174683475Y-89180124D01*
X174684865Y-89181329D01*
X174692548Y-89183000D01*
X174695438Y-89183000D01*
X174701953Y-89182663D01*
X174794057Y-89173106D01*
X174807456Y-89170212D01*
X174956107Y-89120619D01*
X174969286Y-89114445D01*
X175102173Y-89032212D01*
X175113574Y-89023176D01*
X175223986Y-88912571D01*
X175233000Y-88901157D01*
X175316055Y-88766416D01*
X175368827Y-88718922D01*
X175438898Y-88707498D01*
X175504022Y-88735772D01*
X175512332Y-88743357D01*
X175528544Y-88759541D01*
X175528932Y-88759928D01*
X175528066Y-88760796D01*
X175565510Y-88808485D01*
X175574500Y-88855225D01*
X175574500Y-89318500D01*
X175554498Y-89386621D01*
X175500842Y-89433114D01*
X175448500Y-89444500D01*
X175105354Y-89444500D01*
X175101650Y-89444941D01*
X175101647Y-89444941D01*
X175094254Y-89445821D01*
X175079154Y-89447618D01*
X174976847Y-89493061D01*
X174968628Y-89501294D01*
X174968627Y-89501295D01*
X174946921Y-89523039D01*
X174897759Y-89572287D01*
X174852494Y-89674673D01*
X174849500Y-89700354D01*
X174849500Y-90089646D01*
X174852618Y-90115846D01*
X174856456Y-90124486D01*
X174856456Y-90124487D01*
X174893140Y-90207074D01*
X174898061Y-90218153D01*
X174977287Y-90297241D01*
X174987924Y-90301944D01*
X174987926Y-90301945D01*
X175038420Y-90324268D01*
X175079673Y-90342506D01*
X175105354Y-90345500D01*
X176844646Y-90345500D01*
X176848350Y-90345059D01*
X176848353Y-90345059D01*
X176855746Y-90344179D01*
X176870846Y-90342382D01*
X176895760Y-90331316D01*
X176962518Y-90301663D01*
X176973153Y-90296939D01*
X177052241Y-90217713D01*
X177057964Y-90204770D01*
X177093675Y-90123992D01*
X177097506Y-90115327D01*
X177100500Y-90089646D01*
X177100500Y-89700354D01*
X177097382Y-89674154D01*
X177051939Y-89571847D01*
X176972713Y-89492759D01*
X176962076Y-89488056D01*
X176962074Y-89488055D01*
X176902538Y-89461735D01*
X176870327Y-89447494D01*
X176844646Y-89444500D01*
X176501500Y-89444500D01*
X176433379Y-89424498D01*
X176386886Y-89370842D01*
X176375500Y-89318500D01*
X176375500Y-89258749D01*
X178974500Y-89258749D01*
X178974501Y-89766250D01*
X178975172Y-89770808D01*
X178983667Y-89828522D01*
X178985183Y-89838825D01*
X178989498Y-89847613D01*
X178989498Y-89847614D01*
X178998513Y-89865975D01*
X179039361Y-89949171D01*
X179046727Y-89956524D01*
X179046729Y-89956527D01*
X179118991Y-90028663D01*
X179126360Y-90036019D01*
X179166175Y-90055481D01*
X179227591Y-90085502D01*
X179236801Y-90090004D01*
X179246476Y-90091415D01*
X179246478Y-90091416D01*
X179304222Y-90099840D01*
X179304228Y-90099840D01*
X179308749Y-90100500D01*
X179598889Y-90100500D01*
X179891250Y-90100499D01*
X179928149Y-90095068D01*
X179954138Y-90091243D01*
X179954139Y-90091243D01*
X179963825Y-90089817D01*
X179972613Y-90085502D01*
X179972614Y-90085502D01*
X180038534Y-90053136D01*
X180074171Y-90035639D01*
X180081524Y-90028273D01*
X180081527Y-90028271D01*
X180153663Y-89956009D01*
X180153664Y-89956008D01*
X180161019Y-89948640D01*
X180215004Y-89838199D01*
X180216416Y-89828522D01*
X180224840Y-89770778D01*
X180224840Y-89770772D01*
X180225500Y-89766251D01*
X180225499Y-89258750D01*
X180216706Y-89199011D01*
X180216243Y-89195862D01*
X180216243Y-89195861D01*
X180214817Y-89186175D01*
X180208401Y-89173106D01*
X180173236Y-89101486D01*
X180160639Y-89075829D01*
X180153273Y-89068476D01*
X180153271Y-89068473D01*
X180081009Y-88996337D01*
X180081008Y-88996336D01*
X180073640Y-88988981D01*
X180064287Y-88984409D01*
X180055805Y-88978359D01*
X180057801Y-88975560D01*
X180018757Y-88939898D01*
X180000500Y-88874572D01*
X180000500Y-88632380D01*
X180020502Y-88564259D01*
X180064419Y-88525115D01*
X180064039Y-88524584D01*
X180068994Y-88521037D01*
X180070967Y-88519278D01*
X180072506Y-88518522D01*
X180081855Y-88513932D01*
X180140014Y-88455671D01*
X180156935Y-88438721D01*
X180156935Y-88438720D01*
X180164293Y-88431350D01*
X180215536Y-88326518D01*
X180225500Y-88258218D01*
X180225500Y-87791782D01*
X180223565Y-87778633D01*
X180216784Y-87732574D01*
X180216784Y-87732573D01*
X180215358Y-87722888D01*
X180172634Y-87635869D01*
X180168522Y-87627493D01*
X180168521Y-87627491D01*
X180163932Y-87618145D01*
X180081350Y-87535707D01*
X179976518Y-87484464D01*
X179946027Y-87480016D01*
X179912744Y-87475160D01*
X179912740Y-87475160D01*
X179908218Y-87474500D01*
X179291782Y-87474500D01*
X179287232Y-87475170D01*
X179287229Y-87475170D01*
X179232574Y-87483216D01*
X179232573Y-87483216D01*
X179222888Y-87484642D01*
X179193970Y-87498840D01*
X179127493Y-87531478D01*
X179127491Y-87531479D01*
X179118145Y-87536068D01*
X179035707Y-87618650D01*
X179031134Y-87628006D01*
X179031133Y-87628007D01*
X179017291Y-87656325D01*
X178984464Y-87723482D01*
X178982400Y-87737632D01*
X178975516Y-87784820D01*
X178974500Y-87791782D01*
X178974500Y-88258218D01*
X178975170Y-88262768D01*
X178975170Y-88262771D01*
X178983216Y-88317426D01*
X178984642Y-88327112D01*
X179036068Y-88431855D01*
X179118650Y-88514293D01*
X179128008Y-88518867D01*
X179128009Y-88518868D01*
X179128837Y-88519273D01*
X179129764Y-88520120D01*
X179136485Y-88524914D01*
X179135904Y-88525729D01*
X179181252Y-88567160D01*
X179199500Y-88632471D01*
X179199500Y-88874686D01*
X179179498Y-88942807D01*
X179141920Y-88976300D01*
X179143645Y-88978709D01*
X179135178Y-88984771D01*
X179125829Y-88989361D01*
X179118472Y-88996731D01*
X179046644Y-89068684D01*
X179038981Y-89076360D01*
X179030030Y-89094672D01*
X178992969Y-89170491D01*
X178984996Y-89186801D01*
X178983585Y-89196476D01*
X178983584Y-89196478D01*
X178975165Y-89254192D01*
X178974500Y-89258749D01*
X176375500Y-89258749D01*
X176375500Y-88855205D01*
X176395502Y-88787084D01*
X176421655Y-88759586D01*
X176421610Y-88759541D01*
X176423452Y-88757696D01*
X176423457Y-88757691D01*
X176509927Y-88671069D01*
X176564826Y-88558759D01*
X176566238Y-88549082D01*
X176574840Y-88490117D01*
X176574840Y-88490111D01*
X176575500Y-88485590D01*
X176575500Y-87914410D01*
X176574164Y-87905331D01*
X176566061Y-87850290D01*
X176566061Y-87850289D01*
X176564635Y-87840604D01*
X176523904Y-87757644D01*
X176514131Y-87737738D01*
X176514130Y-87737736D01*
X176509541Y-87728390D01*
X176421069Y-87640073D01*
X176308759Y-87585174D01*
X176299084Y-87583763D01*
X176299082Y-87583762D01*
X176240117Y-87575160D01*
X176240111Y-87575160D01*
X176235590Y-87574500D01*
X175714410Y-87574500D01*
X175709860Y-87575170D01*
X175709857Y-87575170D01*
X175650290Y-87583939D01*
X175650289Y-87583939D01*
X175640604Y-87585365D01*
X175588823Y-87610788D01*
X175537738Y-87635869D01*
X175537736Y-87635870D01*
X175528390Y-87640459D01*
X175521034Y-87647828D01*
X175521031Y-87647830D01*
X175512551Y-87656325D01*
X175450268Y-87690403D01*
X175379448Y-87685398D01*
X175322576Y-87642900D01*
X175316236Y-87633608D01*
X175232212Y-87497827D01*
X175223176Y-87486426D01*
X175112571Y-87376014D01*
X175101160Y-87367002D01*
X174968120Y-87284996D01*
X174954939Y-87278849D01*
X174806186Y-87229509D01*
X174792810Y-87226642D01*
X174701903Y-87217328D01*
X174696874Y-87217071D01*
X174681876Y-87221475D01*
X174680671Y-87222865D01*
X174679000Y-87230548D01*
X174679000Y-89164885D01*
X174171000Y-89164885D01*
X174171000Y-88472115D01*
X174166525Y-88456876D01*
X174165135Y-88455671D01*
X174157452Y-88454000D01*
X173485115Y-88454000D01*
X173469876Y-88458475D01*
X173468671Y-88459865D01*
X173467000Y-88467548D01*
X173467000Y-88495438D01*
X160525500Y-88495438D01*
X160525500Y-86572194D01*
X160866602Y-86572194D01*
X160876050Y-86633933D01*
X160878439Y-86643961D01*
X160949710Y-86862016D01*
X160953707Y-86871525D01*
X161059633Y-87075007D01*
X161065127Y-87083732D01*
X161202869Y-87267187D01*
X161209712Y-87274894D01*
X161375569Y-87433391D01*
X161383575Y-87439874D01*
X161573094Y-87569155D01*
X161582053Y-87574244D01*
X161790145Y-87670837D01*
X161799813Y-87674394D01*
X162020879Y-87735701D01*
X162030999Y-87737632D01*
X162218252Y-87757644D01*
X162224944Y-87758000D01*
X162827885Y-87758000D01*
X162843124Y-87753525D01*
X162844329Y-87752135D01*
X162846000Y-87744452D01*
X162846000Y-87739885D01*
X163354000Y-87739885D01*
X163358475Y-87755124D01*
X163359865Y-87756329D01*
X163367548Y-87758000D01*
X163958192Y-87758000D01*
X163962064Y-87757841D01*
X164030948Y-87775032D01*
X164079603Y-87826735D01*
X164092087Y-87895092D01*
X164092553Y-87895117D01*
X164092447Y-87897065D01*
X164092497Y-87897336D01*
X164092369Y-87898515D01*
X164092000Y-87905328D01*
X164092000Y-88227885D01*
X164096475Y-88243124D01*
X164097865Y-88244329D01*
X164105548Y-88246000D01*
X165577885Y-88246000D01*
X165593124Y-88241525D01*
X165594329Y-88240135D01*
X165596000Y-88232452D01*
X165596000Y-88227885D01*
X166104000Y-88227885D01*
X166108475Y-88243124D01*
X166109865Y-88244329D01*
X166117548Y-88246000D01*
X167589884Y-88246000D01*
X167605123Y-88241525D01*
X167606328Y-88240135D01*
X167607999Y-88232452D01*
X167607999Y-87927885D01*
X173467000Y-87927885D01*
X173471475Y-87943124D01*
X173472865Y-87944329D01*
X173480548Y-87946000D01*
X174152885Y-87946000D01*
X174168124Y-87941525D01*
X174169329Y-87940135D01*
X174171000Y-87932452D01*
X174171000Y-87235115D01*
X174166525Y-87219876D01*
X174165135Y-87218671D01*
X174157452Y-87217000D01*
X174154562Y-87217000D01*
X174148047Y-87217337D01*
X174055943Y-87226894D01*
X174042544Y-87229788D01*
X173893893Y-87279381D01*
X173880714Y-87285555D01*
X173747827Y-87367788D01*
X173736426Y-87376824D01*
X173626014Y-87487429D01*
X173617002Y-87498840D01*
X173534996Y-87631880D01*
X173528849Y-87645061D01*
X173479509Y-87793814D01*
X173476642Y-87807190D01*
X173467328Y-87898097D01*
X173467000Y-87904514D01*
X173467000Y-87927885D01*
X167607999Y-87927885D01*
X167607999Y-87905331D01*
X167607629Y-87898510D01*
X167602105Y-87847648D01*
X167598479Y-87832396D01*
X167553324Y-87711946D01*
X167544786Y-87696351D01*
X167468285Y-87594276D01*
X167455724Y-87581715D01*
X167353649Y-87505214D01*
X167338054Y-87496676D01*
X167217606Y-87451522D01*
X167202351Y-87447895D01*
X167151486Y-87442369D01*
X167144672Y-87442000D01*
X166122115Y-87442000D01*
X166106876Y-87446475D01*
X166105671Y-87447865D01*
X166104000Y-87455548D01*
X166104000Y-88227885D01*
X165596000Y-88227885D01*
X165596000Y-87460116D01*
X165591525Y-87444877D01*
X165590135Y-87443672D01*
X165582452Y-87442001D01*
X165116119Y-87442001D01*
X165047998Y-87421999D01*
X165001505Y-87368343D01*
X164991401Y-87298069D01*
X165017237Y-87237909D01*
X165115356Y-87113668D01*
X165121061Y-87105081D01*
X165231926Y-86904250D01*
X165236156Y-86894838D01*
X165312736Y-86678584D01*
X165315365Y-86668634D01*
X165332607Y-86571836D01*
X165331148Y-86558540D01*
X165316592Y-86554000D01*
X163372115Y-86554000D01*
X163356876Y-86558475D01*
X163355671Y-86559865D01*
X163354000Y-86567548D01*
X163354000Y-87739885D01*
X162846000Y-87739885D01*
X162846000Y-86572115D01*
X162841525Y-86556876D01*
X162840135Y-86555671D01*
X162832452Y-86554000D01*
X160881933Y-86554000D01*
X160868589Y-86557918D01*
X160866602Y-86572194D01*
X160525500Y-86572194D01*
X160525500Y-86493823D01*
X177994391Y-86493823D01*
X177995555Y-86502725D01*
X177995555Y-86502728D01*
X178002636Y-86556876D01*
X178012980Y-86635979D01*
X178070720Y-86767203D01*
X178162970Y-86876948D01*
X178214188Y-86911042D01*
X178234917Y-86924840D01*
X178282313Y-86956390D01*
X178419157Y-86999142D01*
X178428129Y-86999306D01*
X178428132Y-86999307D01*
X178493463Y-87000504D01*
X178562499Y-87001770D01*
X178571533Y-86999307D01*
X178692155Y-86966422D01*
X178692158Y-86966421D01*
X178700817Y-86964060D01*
X178708467Y-86959363D01*
X178708469Y-86959362D01*
X178774001Y-86919125D01*
X178839929Y-86900500D01*
X179163574Y-86900500D01*
X179204831Y-86910045D01*
X179205353Y-86908354D01*
X179214698Y-86911242D01*
X179223482Y-86915536D01*
X179233157Y-86916948D01*
X179233159Y-86916948D01*
X179287256Y-86924840D01*
X179287260Y-86924840D01*
X179291782Y-86925500D01*
X179908218Y-86925500D01*
X179912768Y-86924830D01*
X179912771Y-86924830D01*
X179967426Y-86916784D01*
X179967427Y-86916784D01*
X179977112Y-86915358D01*
X180027008Y-86890860D01*
X180072507Y-86868522D01*
X180072509Y-86868521D01*
X180081855Y-86863932D01*
X180164293Y-86781350D01*
X180215536Y-86676518D01*
X180225500Y-86608218D01*
X180225500Y-86141782D01*
X180215358Y-86072888D01*
X180180790Y-86002480D01*
X180168522Y-85977493D01*
X180168521Y-85977491D01*
X180163932Y-85968145D01*
X180081350Y-85885707D01*
X179976518Y-85834464D01*
X179946027Y-85830016D01*
X179912744Y-85825160D01*
X179912740Y-85825160D01*
X179908218Y-85824500D01*
X179291782Y-85824500D01*
X179287232Y-85825170D01*
X179287229Y-85825170D01*
X179232574Y-85833216D01*
X179232573Y-85833216D01*
X179222888Y-85834642D01*
X179172992Y-85859140D01*
X179127493Y-85881478D01*
X179127491Y-85881479D01*
X179118145Y-85886068D01*
X179084771Y-85919500D01*
X179049732Y-85954601D01*
X179035707Y-85968650D01*
X179031134Y-85978006D01*
X179031133Y-85978007D01*
X179006289Y-86028833D01*
X178958404Y-86081250D01*
X178893089Y-86099500D01*
X178839636Y-86099500D01*
X178771104Y-86079232D01*
X178719629Y-86045868D01*
X178719627Y-86045867D01*
X178712095Y-86040985D01*
X178703498Y-86038414D01*
X178703496Y-86038413D01*
X178612761Y-86011278D01*
X178574739Y-85999907D01*
X178565763Y-85999852D01*
X178565762Y-85999852D01*
X178505555Y-85999484D01*
X178431376Y-85999031D01*
X178293529Y-86038428D01*
X178172280Y-86114930D01*
X178077377Y-86222388D01*
X178016447Y-86352163D01*
X177994391Y-86493823D01*
X160525500Y-86493823D01*
X160525500Y-86028164D01*
X160867393Y-86028164D01*
X160868852Y-86041460D01*
X160883408Y-86046000D01*
X162827885Y-86046000D01*
X162843124Y-86041525D01*
X162844329Y-86040135D01*
X162846000Y-86032452D01*
X162846000Y-86027885D01*
X163354000Y-86027885D01*
X163358475Y-86043124D01*
X163359865Y-86044329D01*
X163367548Y-86046000D01*
X165318067Y-86046000D01*
X165331411Y-86042082D01*
X165333398Y-86027806D01*
X165323950Y-85966067D01*
X165321561Y-85956039D01*
X165250290Y-85737984D01*
X165246293Y-85728475D01*
X165140367Y-85524993D01*
X165134873Y-85516268D01*
X164997131Y-85332813D01*
X164990288Y-85325106D01*
X164824431Y-85166609D01*
X164816425Y-85160126D01*
X164626906Y-85030845D01*
X164617947Y-85025756D01*
X164409855Y-84929163D01*
X164400187Y-84925606D01*
X164179121Y-84864299D01*
X164169001Y-84862368D01*
X163981748Y-84842356D01*
X163975056Y-84842000D01*
X163372115Y-84842000D01*
X163356876Y-84846475D01*
X163355671Y-84847865D01*
X163354000Y-84855548D01*
X163354000Y-86027885D01*
X162846000Y-86027885D01*
X162846000Y-84860115D01*
X162841525Y-84844876D01*
X162840135Y-84843671D01*
X162832452Y-84842000D01*
X162241810Y-84842000D01*
X162236637Y-84842212D01*
X162066206Y-84856224D01*
X162056044Y-84857907D01*
X161833539Y-84913796D01*
X161823784Y-84917117D01*
X161613410Y-85008591D01*
X161604312Y-85013469D01*
X161411699Y-85138075D01*
X161403539Y-85144359D01*
X161233851Y-85298763D01*
X161226830Y-85306293D01*
X161084644Y-85486332D01*
X161078939Y-85494919D01*
X160968074Y-85695750D01*
X160963844Y-85705162D01*
X160887264Y-85921416D01*
X160884635Y-85931366D01*
X160867393Y-86028164D01*
X160525500Y-86028164D01*
X160525500Y-84651500D01*
X160545502Y-84583379D01*
X160599158Y-84536886D01*
X160651500Y-84525500D01*
X184348500Y-84525500D01*
X184416621Y-84545502D01*
G37*
%TD.AperFunction*%
%TD*%
M02*
